Font-Italic.ufo
<glyph name="exclam" format="1">
  <advance width="768"/>
  <unicode hex="0021"/>
  <outline>
    <contour>
      <point x="153" y="0" type="line"/>
      <point x="357" y="0" type="line"/>
      <point x="393" y="206" type="line"/>
      <point x="189" y="206" type="line"/>
    </contour>
    <contour>
      <point x="291" y="371" type="curve"/>
      <point x="347" y="371" type="line"/>
      <point x="347" y="371"/>
      <point x="547" y="1060"/>
      <point x="615" y="1446" type="curve"/>
      <point x="413" y="1446" type="line"/>
      <point x="345" y="1060"/>
      <point x="291" y="371"/>
    </contour>
  </outline>
</glyph>
<glyph name="dollar" format="1">
  <advance width="1303"/>
  <unicode hex="0024"/>
  <outline>
    <component base="S"/>
    <contour>
      <point x="432" y="-372" type="line"/>
      <point x="542" y="-372" type="line"/>
      <point x="918" y="1758" type="line"/>
      <point x="808" y="1758" type="line"/>
    </contour>
  </outline>
</glyph>
<glyph name="percent" format="1">
  <advance width="2048"/>
  <unicode hex="0025"/>
  <outline>
    <contour>
      <point x="481" y="794" type="curve" smooth="yes"/>
      <point x="385" y="794"/>
      <point x="357" y="845"/>
      <point x="357" y="924" type="curve" smooth="yes"/>
      <point x="357" y="958"/>
      <point x="362" y="997"/>
      <point x="369" y="1040" type="curve" smooth="yes"/>
      <point x="386" y="1135" type="line" smooth="yes"/>
      <point x="410" y="1271"/>
      <point x="439" y="1365"/>
      <point x="582" y="1365" type="curve" smooth="yes"/>
      <point x="682" y="1365"/>
      <point x="711" y="1319"/>
      <point x="711" y="1245" type="curve" smooth="yes"/>
      <point x="711" y="1213"/>
      <point x="705" y="1175"/>
      <point x="698" y="1133" type="curve" smooth="yes"/>
      <point x="681" y="1040" type="line"/>
      <point x="657" y="899"/>
      <point x="619" y="794"/>
    </contour>
    <contour>
      <point x="461" y="678" type="curve" smooth="yes"/>
      <point x="691" y="678"/>
      <point x="789" y="828"/>
      <point x="829" y="1057" type="curve"/>
      <point x="839" y="1111" type="line" smooth="yes"/>
      <point x="847" y="1159"/>
      <point x="851" y="1203"/>
      <point x="851" y="1242" type="curve" smooth="yes"/>
      <point x="851" y="1395"/>
      <point x="785" y="1481"/>
      <point x="602" y="1481" type="curve" smooth="yes"/>
      <point x="371" y="1481"/>
      <point x="280" y="1343"/>
      <point x="239" y="1110" type="curve"/>
      <point x="229" y="1057" type="line" smooth="yes"/>
      <point x="220" y="1008"/>
      <point x="216" y="963"/>
      <point x="216" y="922" type="curve" smooth="yes"/>
      <point x="216" y="771"/>
      <point x="280" y="678"/>
    </contour>
    <contour>
      <point x="1462" y="97" type="curve" smooth="yes"/>
      <point x="1366" y="97"/>
      <point x="1338" y="148"/>
      <point x="1338" y="226" type="curve" smooth="yes"/>
      <point x="1338" y="260"/>
      <point x="1343" y="300"/>
      <point x="1351" y="343" type="curve" smooth="yes"/>
      <point x="1367" y="438" type="line"/>
      <point x="1391" y="574"/>
      <point x="1420" y="668"/>
      <point x="1563" y="668" type="curve" smooth="yes"/>
      <point x="1663" y="668"/>
      <point x="1692" y="622"/>
      <point x="1692" y="548" type="curve" smooth="yes"/>
      <point x="1692" y="516"/>
      <point x="1686" y="478"/>
      <point x="1679" y="436" type="curve" smooth="yes"/>
      <point x="1663" y="343" type="line" smooth="yes"/>
      <point x="1638" y="202"/>
      <point x="1600" y="97"/>
    </contour>
    <contour>
      <point x="1442" y="-19" type="curve" smooth="yes"/>
      <point x="1672" y="-19"/>
      <point x="1770" y="131"/>
      <point x="1811" y="360" type="curve"/>
      <point x="1820" y="414" type="line" smooth="yes"/>
      <point x="1828" y="462"/>
      <point x="1832" y="506"/>
      <point x="1832" y="545" type="curve" smooth="yes"/>
      <point x="1832" y="698"/>
      <point x="1766" y="784"/>
      <point x="1583" y="784" type="curve" smooth="yes"/>
      <point x="1352" y="784"/>
      <point x="1261" y="646"/>
      <point x="1220" y="413" type="curve"/>
      <point x="1211" y="360" type="line" smooth="yes"/>
      <point x="1202" y="310"/>
      <point x="1197" y="264"/>
      <point x="1197" y="223" type="curve" smooth="yes"/>
      <point x="1197" y="73"/>
      <point x="1262" y="-19"/>
    </contour>
    <contour>
      <point x="539" y="0" type="line"/>
      <point x="693" y="0" type="line"/>
      <point x="1486" y="1446" type="line"/>
      <point x="1337" y="1446" type="line"/>
    </contour>
  </outline>
</glyph>
<glyph name="ampersand" format="1">
  <advance width="1500"/>
  <unicode hex="0026"/>
  <outline>
    <contour>
      <point x="587" y="-24" type="curve" smooth="yes"/>
      <point x="840" y="-24"/>
      <point x="987" y="28"/>
      <point x="1077" y="114" type="curve"/>
      <point x="1196" y="-19" type="line"/>
      <point x="1320" y="94" type="line"/>
      <point x="1174" y="261" type="line"/>
      <point x="1204" y="332"/>
      <point x="1220" y="413"/>
      <point x="1236" y="500" type="curve" smooth="yes"/>
      <point x="1285" y="778" type="line"/>
      <point x="1110" y="778" type="line"/>
      <point x="1053" y="455" type="line" smooth="yes"/>
      <point x="1050" y="439"/>
      <point x="1047" y="424"/>
      <point x="1044" y="410" type="curve"/>
      <point x="609" y="907" type="line"/>
      <point x="548" y="985"/>
      <point x="520" y="1030"/>
      <point x="520" y="1087" type="curve" smooth="yes"/>
      <point x="520" y="1099"/>
      <point x="522" y="1112"/>
      <point x="524" y="1126" type="curve" smooth="yes"/>
      <point x="544" y="1242"/>
      <point x="600" y="1331"/>
      <point x="810" y="1331" type="curve" smooth="yes"/>
      <point x="972" y="1331"/>
      <point x="1040" y="1310"/>
      <point x="1040" y="1215" type="curve" smooth="yes"/>
      <point x="1040" y="1200"/>
      <point x="1038" y="1183"/>
      <point x="1035" y="1164" type="curve" smooth="yes"/>
      <point x="1024" y="1104" type="line"/>
      <point x="1190" y="1104" type="line"/>
      <point x="1208" y="1205" type="line" smooth="yes"/>
      <point x="1213" y="1232"/>
      <point x="1215" y="1257"/>
      <point x="1215" y="1279" type="curve" smooth="yes"/>
      <point x="1215" y="1450"/>
      <point x="1076" y="1483"/>
      <point x="822" y="1483" type="curve" smooth="yes"/>
      <point x="488" y="1483"/>
      <point x="369" y="1323"/>
      <point x="337" y="1142" type="curve" smooth="yes"/>
      <point x="332" y="1116"/>
      <point x="330" y="1091"/>
      <point x="330" y="1069" type="curve" smooth="yes"/>
      <point x="330" y="961"/>
      <point x="381" y="896"/>
      <point x="454" y="816" type="curve"/>
      <point x="250" y="759"/>
      <point x="160" y="640"/>
      <point x="125" y="439" type="curve" smooth="yes"/>
      <point x="118" y="399"/>
      <point x="114" y="358"/>
      <point x="114" y="320" type="curve" smooth="yes"/>
      <point x="114" y="129"/>
      <point x="218" y="-24"/>
    </contour>
    <contour>
      <point x="614" y="126" type="curve" smooth="yes"/>
      <point x="400" y="126"/>
      <point x="319" y="205"/>
      <point x="319" y="351" type="curve" smooth="yes"/>
      <point x="319" y="380"/>
      <point x="322" y="411"/>
      <point x="328" y="445" type="curve" smooth="yes"/>
      <point x="349" y="567"/>
      <point x="379" y="680"/>
      <point x="537" y="723" type="curve"/>
      <point x="975" y="230" type="line"/>
      <point x="907" y="136"/>
      <point x="800" y="126"/>
    </contour>
  </outline>
</glyph>
<glyph name="quotesingle" format="1">
  <advance width="896"/>
  <unicode hex="0027"/>
  <outline>
    <contour>
      <point x="172" y="930" type="line"/>
      <point x="284" y="930" type="line"/>
      <point x="435" y="1506" type="line"/>
      <point x="230" y="1506" type="line"/>
    </contour>
  </outline>
</glyph>
<glyph name="parenleft" format="1">
  <advance width="768"/>
  <unicode hex="0028"/>
  <outline>
    <contour>
      <point x="493" y="-150" type="curve"/>
      <point x="519" y="0" type="line"/>
      <point x="334" y="0"/>
      <point x="283" y="68"/>
      <point x="283" y="189" type="curve" smooth="yes"/>
      <point x="283" y="250"/>
      <point x="296" y="323"/>
      <point x="311" y="409" type="curve" smooth="yes"/>
      <point x="415" y="996" type="line" smooth="yes"/>
      <point x="460" y="1253"/>
      <point x="491" y="1416"/>
      <point x="769" y="1416" type="curve"/>
      <point x="795" y="1567" type="line"/>
      <point x="325" y="1567"/>
      <point x="270" y="1265"/>
      <point x="216" y="959" type="curve" smooth="yes"/>
      <point x="125" y="440" type="line" smooth="yes"/>
      <point x="108" y="346"/>
      <point x="92" y="252"/>
      <point x="92" y="169" type="curve" smooth="yes"/>
      <point x="92" y="-14"/>
      <point x="170" y="-150"/>
    </contour>
  </outline>
</glyph>
<glyph name="parenright" format="1">
  <advance width="768"/>
  <unicode hex="0029"/>
  <outline>
    <contour>
      <point x="-27" y="-150" type="line"/>
      <point x="443" y="-150"/>
      <point x="498" y="152"/>
      <point x="552" y="458" type="curve" smooth="yes"/>
      <point x="643" y="977" type="line" smooth="yes"/>
      <point x="660" y="1071"/>
      <point x="676" y="1165"/>
      <point x="676" y="1248" type="curve" smooth="yes"/>
      <point x="676" y="1431"/>
      <point x="598" y="1567"/>
      <point x="275" y="1567" type="curve"/>
      <point x="249" y="1417" type="line"/>
      <point x="434" y="1417"/>
      <point x="485" y="1349"/>
      <point x="485" y="1228" type="curve" smooth="yes"/>
      <point x="485" y="1167"/>
      <point x="472" y="1094"/>
      <point x="457" y="1008" type="curve" smooth="yes"/>
      <point x="353" y="421" type="line" smooth="yes"/>
      <point x="308" y="164"/>
      <point x="277" y="1"/>
      <point x="-1" y="1" type="curve"/>
    </contour>
  </outline>
</glyph>
<glyph name="asterisk" format="1">
  <advance width="1024"/>
  <unicode hex="002A"/>
  <outline>
    <contour>
      <point x="348" y="599" type="line"/>
      <point x="526" y="599" type="line"/>
      <point x="553" y="912" type="line"/>
      <point x="766" y="722" type="line"/>
      <point x="888" y="875" type="line"/>
      <point x="633" y="1017" type="line"/>
      <point x="945" y="1134" type="line"/>
      <point x="892" y="1295" type="line"/>
      <point x="588" y="1121" type="line"/>
      <point x="676" y="1446" type="line"/>
      <point x="498" y="1446" type="line"/>
      <point x="470" y="1133" type="line"/>
      <point x="257" y="1323" type="line"/>
      <point x="135" y="1170" type="line"/>
      <point x="390" y="1028" type="line"/>
      <point x="79" y="911" type="line"/>
      <point x="131" y="750" type="line"/>
      <point x="435" y="924" type="line"/>
    </contour>
  </outline>
</glyph>
<glyph name="plus" format="1">
  <advance width="1024"/>
  <unicode hex="002B"/>
  <outline>
    <contour>
      <point x="365" y="156" type="line"/>
      <point x="516" y="156" type="line"/>
      <point x="576" y="494" type="line"/>
      <point x="850" y="494" type="line"/>
      <point x="876" y="642" type="line"/>
      <point x="602" y="642" type="line"/>
      <point x="660" y="968" type="line"/>
      <point x="509" y="968" type="line"/>
      <point x="451" y="642" type="line"/>
      <point x="176" y="642" type="line"/>
      <point x="150" y="494" type="line"/>
      <point x="425" y="494" type="line"/>
    </contour>
  </outline>
</glyph>
<glyph name="period" format="1">
  <advance width="628"/>
  <unicode hex="002E"/>
  <outline>
    <contour>
      <point x="165" y="0" type="line"/>
      <point x="421" y="0" type="line"/>
      <point x="463" y="242" type="line"/>
      <point x="207" y="242" type="line"/>
    </contour>
  </outline>
</glyph>
<glyph name="zero" format="1">
  <advance width="1250"/>
  <unicode hex="0030"/>
  <outline>
    <contour>
      <point x="531" y="140" type="curve" smooth="yes"/>
      <point x="340" y="140"/>
      <point x="288" y="240"/>
      <point x="288" y="382" type="curve" smooth="yes"/>
      <point x="288" y="453"/>
      <point x="301" y="534"/>
      <point x="316" y="619" type="curve" smooth="yes"/>
      <point x="350" y="816" type="line"/>
      <point x="396" y="1073"/>
      <point x="453" y="1306"/>
      <point x="737" y="1306" type="curve" smooth="yes"/>
      <point x="926" y="1306"/>
      <point x="978" y="1202"/>
      <point x="978" y="1057" type="curve" smooth="yes"/>
      <point x="978" y="984"/>
      <point x="965" y="902"/>
      <point x="950" y="816" type="curve" smooth="yes"/>
      <point x="916" y="619" type="line" smooth="yes"/>
      <point x="871" y="363"/>
      <point x="817" y="140"/>
    </contour>
    <contour>
      <point x="503" y="-22" type="curve" smooth="yes"/>
      <point x="986" y="-22"/>
      <point x="1068" y="335"/>
      <point x="1121" y="636" type="curve" smooth="yes"/>
      <point x="1148" y="790" type="line" smooth="yes"/>
      <point x="1165" y="885"/>
      <point x="1181" y="986"/>
      <point x="1181" y="1080" type="curve" smooth="yes"/>
      <point x="1181" y="1291"/>
      <point x="1100" y="1468"/>
      <point x="765" y="1468" type="curve" smooth="yes"/>
      <point x="280" y="1468"/>
      <point x="198" y="1096"/>
      <point x="144" y="790" type="curve" smooth="yes"/>
      <point x="117" y="636" type="line" smooth="yes"/>
      <point x="101" y="545"/>
      <point x="86" y="448"/>
      <point x="86" y="358" type="curve" smooth="yes"/>
      <point x="86" y="151"/>
      <point x="166" y="-22"/>
    </contour>
  </outline>
</glyph>
<glyph name="two" format="1">
  <advance width="1250"/>
  <unicode hex="0032"/>
  <outline>
    <contour>
      <point x="102" y="0" type="line"/>
      <point x="958" y="0" type="line"/>
      <point x="985" y="156" type="line"/>
      <point x="339" y="156" type="line"/>
      <point x="815" y="581" type="line" smooth="yes"/>
      <point x="988" y="735"/>
      <point x="1113" y="834"/>
      <point x="1152" y="1059" type="curve" smooth="yes"/>
      <point x="1157" y="1089"/>
      <point x="1160" y="1118"/>
      <point x="1160" y="1146" type="curve" smooth="yes"/>
      <point x="1160" y="1333"/>
      <point x="1039" y="1468"/>
      <point x="768" y="1468" type="curve" smooth="yes"/>
      <point x="476" y="1468"/>
      <point x="271" y="1342"/>
      <point x="215" y="1024" type="curve"/>
      <point x="416" y="1024" type="line"/>
      <point x="458" y="1259"/>
      <point x="544" y="1306"/>
      <point x="755" y="1306" type="curve" smooth="yes"/>
      <point x="903" y="1306"/>
      <point x="970" y="1262"/>
      <point x="970" y="1141" type="curve" smooth="yes"/>
      <point x="970" y="1116"/>
      <point x="968" y="1089"/>
      <point x="962" y="1057" type="curve" smooth="yes"/>
      <point x="936" y="912"/>
      <point x="866" y="847"/>
      <point x="692" y="689" type="curve" smooth="yes"/>
      <point x="110" y="158" type="line"/>
    </contour>
  </outline>
</glyph>
<glyph name="three" format="1">
  <advance width="1250"/>
  <unicode hex="0033"/>
  <outline>
    <contour>
      <point x="548" y="-22" type="curve" smooth="yes"/>
      <point x="832" y="-22"/>
      <point x="1020" y="122"/>
      <point x="1069" y="398" type="curve" smooth="yes"/>
      <point x="1077" y="442"/>
      <point x="1081" y="481"/>
      <point x="1081" y="516" type="curve" smooth="yes"/>
      <point x="1081" y="673"/>
      <point x="1003" y="740"/>
      <point x="873" y="768" type="curve"/>
      <point x="1046" y="795"/>
      <point x="1128" y="901"/>
      <point x="1162" y="1091" type="curve" smooth="yes"/>
      <point x="1167" y="1122"/>
      <point x="1170" y="1152"/>
      <point x="1170" y="1179" type="curve" smooth="yes"/>
      <point x="1170" y="1380"/>
      <point x="1025" y="1468"/>
      <point x="806" y="1468" type="curve" smooth="yes"/>
      <point x="549" y="1468"/>
      <point x="336" y="1393"/>
      <point x="271" y="1025" type="curve"/>
      <point x="463" y="1025" type="line"/>
      <point x="507" y="1273"/>
      <point x="601" y="1306"/>
      <point x="779" y="1306" type="curve" smooth="yes"/>
      <point x="923" y="1306"/>
      <point x="979" y="1248"/>
      <point x="979" y="1149" type="curve" smooth="yes"/>
      <point x="979" y="1130"/>
      <point x="977" y="1110"/>
      <point x="973" y="1088" type="curve" smooth="yes"/>
      <point x="944" y="924"/>
      <point x="917" y="840"/>
      <point x="608" y="840" type="curve"/>
      <point x="581" y="691" type="line"/>
      <point x="819" y="691"/>
      <point x="891" y="647"/>
      <point x="891" y="518" type="curve" smooth="yes"/>
      <point x="891" y="484"/>
      <point x="886" y="445"/>
      <point x="878" y="399" type="curve" smooth="yes"/>
      <point x="848" y="230"/>
      <point x="760" y="140"/>
      <point x="587" y="140" type="curve" smooth="yes"/>
      <point x="416" y="140"/>
      <point x="343" y="176"/>
      <point x="343" y="340" type="curve" smooth="yes"/>
      <point x="343" y="367"/>
      <point x="345" y="397"/>
      <point x="349" y="431" type="curve"/>
      <point x="157" y="431" type="line"/>
      <point x="154" y="396"/>
      <point x="153" y="363"/>
      <point x="153" y="333" type="curve" smooth="yes"/>
      <point x="153" y="69"/>
      <point x="259" y="-22"/>
    </contour>
  </outline>
</glyph>
<glyph name="five" format="1">
  <advance width="1250"/>
  <unicode hex="0035"/>
  <outline>
    <contour>
      <point x="889" y="534" type="curve" smooth="yes"/>
      <point x="889" y="285"/>
      <point x="740" y="140"/>
      <point x="523" y="140" type="curve" smooth="yes"/>
      <point x="319" y="140"/>
      <point x="238" y="191"/>
      <point x="146" y="260" type="curve"/>
      <point x="66" y="107" type="line"/>
      <point x="160" y="46"/>
      <point x="279" y="-22"/>
      <point x="503" y="-22" type="curve" smooth="yes"/>
      <point x="795" y="-22"/>
      <point x="1021" y="169"/>
      <point x="1071" y="449" type="curve" smooth="yes"/>
      <point x="1078" y="491"/>
      <point x="1082" y="531"/>
      <point x="1082" y="568" type="curve" smooth="yes"/>
      <point x="1082" y="782"/>
      <point x="959" y="911"/>
      <point x="704" y="911" type="curve" smooth="yes"/>
      <point x="603" y="911"/>
      <point x="498" y="877"/>
      <point x="425" y="819" type="curve"/>
      <point x="548" y="1281" type="line"/>
      <point x="1124" y="1281" type="line"/>
      <point x="1153" y="1446" type="line"/>
      <point x="416" y="1446" type="line"/>
      <point x="236" y="712" type="line"/>
      <point x="371" y="652" type="line"/>
      <point x="488" y="727"/>
      <point x="555" y="762"/>
      <point x="654" y="762" type="curve" smooth="yes"/>
      <point x="819" y="762"/>
      <point x="889" y="674"/>
    </contour>
  </outline>
</glyph>
<glyph name="seven" format="1">
  <advance width="1250"/>
  <unicode hex="0037"/>
  <outline>
    <contour>
      <point x="242" y="0" type="line"/>
      <point x="453" y="0" type="line"/>
      <point x="1170" y="1289" type="line"/>
      <point x="1197" y="1446" type="line"/>
      <point x="316" y="1446" type="line"/>
      <point x="289" y="1291" type="line"/>
      <point x="969" y="1291" type="line"/>
    </contour>
  </outline>
</glyph>
<glyph name="eight" format="1">
  <advance width="1250"/>
  <unicode hex="0038"/>
  <outline>
    <contour>
      <point x="820" y="773" type="curve"/>
      <point x="999" y="849"/>
      <point x="1165" y="941"/>
      <point x="1165" y="1183" type="curve" smooth="yes"/>
      <point x="1165" y="1392"/>
      <point x="984" y="1468"/>
      <point x="757" y="1468" type="curve" smooth="yes"/>
      <point x="502" y="1468"/>
      <point x="275" y="1375"/>
      <point x="228" y="1108" type="curve" smooth="yes"/>
      <point x="224" y="1086"/>
      <point x="222" y="1065"/>
      <point x="222" y="1046" type="curve" smooth="yes"/>
      <point x="222" y="903"/>
      <point x="325" y="834"/>
      <point x="447" y="773" type="curve"/>
      <point x="276" y="703"/>
      <point x="107" y="580"/>
      <point x="69" y="367" type="curve" smooth="yes"/>
      <point x="64" y="339"/>
      <point x="62" y="312"/>
      <point x="62" y="287" type="curve" smooth="yes"/>
      <point x="62" y="78"/>
      <point x="228" y="-22"/>
      <point x="490" y="-22" type="curve" smooth="yes"/>
      <point x="790" y="-22"/>
      <point x="1009" y="103"/>
      <point x="1055" y="367" type="curve" smooth="yes"/>
      <point x="1060" y="393"/>
      <point x="1062" y="417"/>
      <point x="1062" y="440" type="curve" smooth="yes"/>
      <point x="1062" y="609"/>
      <point x="947" y="711"/>
    </contour>
    <contour>
      <point x="523" y="140" type="curve" smooth="yes"/>
      <point x="354" y="140"/>
      <point x="256" y="186"/>
      <point x="256" y="316" type="curve" smooth="yes"/>
      <point x="256" y="333"/>
      <point x="258" y="352"/>
      <point x="261" y="372" type="curve" smooth="yes"/>
      <point x="289" y="529"/>
      <point x="442" y="610"/>
      <point x="619" y="689" type="curve"/>
      <point x="753" y="617"/>
      <point x="869" y="545"/>
      <point x="869" y="415" type="curve" smooth="yes"/>
      <point x="869" y="401"/>
      <point x="868" y="387"/>
      <point x="865" y="372" type="curve" smooth="yes"/>
      <point x="835" y="199"/>
      <point x="711" y="140"/>
    </contour>
    <contour>
      <point x="647" y="846" type="curve"/>
      <point x="525" y="910"/>
      <point x="420" y="966"/>
      <point x="420" y="1074" type="curve" smooth="yes"/>
      <point x="420" y="1084"/>
      <point x="421" y="1096"/>
      <point x="423" y="1107" type="curve" smooth="yes"/>
      <point x="444" y="1230"/>
      <point x="528" y="1306"/>
      <point x="729" y="1306" type="curve" smooth="yes"/>
      <point x="902" y="1306"/>
      <point x="967" y="1248"/>
      <point x="967" y="1152" type="curve" smooth="yes"/>
      <point x="967" y="1138"/>
      <point x="966" y="1123"/>
      <point x="963" y="1107" type="curve" smooth="yes"/>
      <point x="940" y="977"/>
      <point x="805" y="917"/>
    </contour>
  </outline>
</glyph>
<glyph name="greater" format="1">
  <advance width="1250"/>
  <unicode hex="003E"/>
  <outline>
    <contour>
      <point x="107" y="0" type="line"/>
      <point x="1076" y="472" type="line"/>
      <point x="1112" y="673" type="line"/>
      <point x="309" y="1144" type="line"/>
      <point x="272" y="935" type="line"/>
      <point x="939" y="571" type="line"/>
      <point x="143" y="203" type="line"/>
    </contour>
  </outline>
</glyph>
<glyph name="question" format="1">
  <advance width="1240"/>
  <unicode hex="003F"/>
  <outline>
    <contour>
      <point x="413" y="431" type="line"/>
      <point x="573" y="431" type="line"/>
      <point x="819" y="650" type="line" smooth="yes"/>
      <point x="1003" y="814"/>
      <point x="1131" y="931"/>
      <point x="1163" y="1114" type="curve" smooth="yes"/>
      <point x="1167" y="1137"/>
      <point x="1170" y="1161"/>
      <point x="1170" y="1185" type="curve" smooth="yes"/>
      <point x="1170" y="1328"/>
      <point x="1084" y="1468"/>
      <point x="786" y="1468" type="curve" smooth="yes"/>
      <point x="445" y="1468"/>
      <point x="292" y="1374"/>
      <point x="238" y="1071" type="curve"/>
      <point x="233" y="1039" type="line"/>
      <point x="430" y="1039" type="line"/>
      <point x="439" y="1092" type="line"/>
      <point x="463" y="1225"/>
      <point x="542" y="1306"/>
      <point x="758" y="1306" type="curve" smooth="yes"/>
      <point x="906" y="1306"/>
      <point x="954" y="1248"/>
      <point x="954" y="1161" type="curve" smooth="yes"/>
      <point x="954" y="1143"/>
      <point x="952" y="1123"/>
      <point x="948" y="1103" type="curve" smooth="yes"/>
      <point x="927" y="986"/>
      <point x="856" y="909"/>
      <point x="751" y="795" type="curve" smooth="yes"/>
    </contour>
    <contour>
      <point x="311" y="0" type="line"/>
      <point x="515" y="0" type="line"/>
      <point x="551" y="206" type="line"/>
      <point x="347" y="206" type="line"/>
    </contour>
  </outline>
</glyph>
<glyph name="A" format="1">
  <advance width="1428"/>
  <unicode hex="0041"/>
  <outline>
    <contour>
      <point x="1158" y="0" type="move" name="ogonek"/>
    </contour>
    <contour>
      <point x="843" y="1446" type="move" name="top"/>
    </contour>
    <contour>
      <point x="-41" y="0" type="line"/>
      <point x="168" y="0" type="line"/>
      <point x="316" y="282" type="line"/>
      <point x="961" y="282" type="line"/>
      <point x="1010" y="0" type="line"/>
      <point x="1215" y="0" type="line"/>
      <point x="929" y="1446" type="line"/>
      <point x="752" y="1446" type="line"/>
    </contour>
    <contour>
      <point x="389" y="425" type="line"/>
      <point x="806" y="1216" type="line"/>
      <point x="940" y="425" type="line"/>
    </contour>
  </outline>
</glyph>
<glyph name="B" format="1">
  <advance width="1420"/>
  <unicode hex="0042"/>
  <outline>
    <contour>
      <point x="823" y="1446" type="move" name="top"/>
    </contour>
    <contour>
      <point x="91" y="0" type="line"/>
      <point x="659" y="0" type="line" smooth="yes"/>
      <point x="1011" y="0"/>
      <point x="1186" y="124"/>
      <point x="1237" y="411" type="curve" smooth="yes"/>
      <point x="1243" y="443"/>
      <point x="1245" y="474"/>
      <point x="1245" y="503" type="curve" smooth="yes"/>
      <point x="1245" y="641"/>
      <point x="1183" y="742"/>
      <point x="1049" y="773" type="curve"/>
      <point x="1191" y="819"/>
      <point x="1254" y="922"/>
      <point x="1279" y="1049" type="curve" smooth="yes"/>
      <point x="1287" y="1096"/>
      <point x="1292" y="1138"/>
      <point x="1292" y="1177" type="curve" smooth="yes"/>
      <point x="1292" y="1349"/>
      <point x="1196" y="1446"/>
      <point x="869" y="1446" type="curve" smooth="yes"/>
      <point x="345" y="1446" type="line"/>
    </contour>
    <contour>
      <point x="319" y="149" type="line"/>
      <point x="415" y="696" type="line"/>
      <point x="815" y="696" type="line" smooth="yes"/>
      <point x="997" y="696"/>
      <point x="1049" y="607"/>
      <point x="1049" y="502" type="curve" smooth="yes"/>
      <point x="1049" y="479"/>
      <point x="1047" y="456"/>
      <point x="1043" y="433" type="curve" smooth="yes"/>
      <point x="1001" y="197"/>
      <point x="894" y="149"/>
      <point x="670" y="149" type="curve" smooth="yes"/>
    </contour>
    <contour>
      <point x="439" y="833" type="line"/>
      <point x="521" y="1295" type="line"/>
      <point x="812" y="1295" type="line" smooth="yes"/>
      <point x="1013" y="1295"/>
      <point x="1088" y="1268"/>
      <point x="1088" y="1143" type="curve" smooth="yes"/>
      <point x="1088" y="1116"/>
      <point x="1085" y="1084"/>
      <point x="1078" y="1047" type="curve" smooth="yes"/>
      <point x="1055" y="917"/>
      <point x="992" y="833"/>
      <point x="810" y="833" type="curve" smooth="yes"/>
    </contour>
  </outline>
</glyph>
<glyph name="C" format="1">
  <advance width="1456"/>
  <unicode hex="0043"/>
  <outline>
    <contour>
      <point x="638" y="0" type="move" name="bot"/>
    </contour>
    <contour>
      <point x="892" y="1446" type="move" name="top"/>
    </contour>
    <contour>
      <point x="630" y="-22" type="curve" smooth="yes"/>
      <point x="1099" y="-22"/>
      <point x="1193" y="151"/>
      <point x="1252" y="448" type="curve"/>
      <point x="1061" y="448" type="line"/>
      <point x="1056" y="424" type="line"/>
      <point x="1006" y="165"/>
      <point x="913" y="140"/>
      <point x="662" y="140" type="curve" smooth="yes"/>
      <point x="443" y="140"/>
      <point x="327" y="183"/>
      <point x="327" y="357" type="curve" smooth="yes"/>
      <point x="327" y="386"/>
      <point x="331" y="418"/>
      <point x="337" y="455" type="curve" smooth="yes"/>
      <point x="429" y="977" type="line" smooth="yes"/>
      <point x="474" y="1234"/>
      <point x="608" y="1306"/>
      <point x="862" y="1306" type="curve" smooth="yes"/>
      <point x="1078" y="1306"/>
      <point x="1169" y="1280"/>
      <point x="1169" y="1117" type="curve" smooth="yes"/>
      <point x="1169" y="1086"/>
      <point x="1165" y="1049"/>
      <point x="1159" y="1007" type="curve"/>
      <point x="1154" y="980" type="line"/>
      <point x="1348" y="997" type="line"/>
      <point x="1360" y="1047"/>
      <point x="1364" y="1107"/>
      <point x="1364" y="1152" type="curve" smooth="yes"/>
      <point x="1364" y="1359"/>
      <point x="1252" y="1468"/>
      <point x="890" y="1468" type="curve" smooth="yes"/>
      <point x="405" y="1468"/>
      <point x="274" y="1246"/>
      <point x="220" y="940" type="curve" smooth="yes"/>
      <point x="140" y="486" type="line" smooth="yes"/>
      <point x="130" y="430"/>
      <point x="124" y="377"/>
      <point x="124" y="328" type="curve" smooth="yes"/>
      <point x="124" y="115"/>
      <point x="237" y="-22"/>
    </contour>
  </outline>
</glyph>
<glyph name="D" format="1">
  <advance width="1522"/>
  <unicode hex="0044"/>
  <outline>
    <contour>
      <point x="319" y="150" type="line"/>
      <point x="521" y="1295" type="line"/>
      <point x="875" y="1295" type="line" smooth="yes"/>
      <point x="1055" y="1295"/>
      <point x="1192" y="1252"/>
      <point x="1192" y="1062" type="curve" smooth="yes"/>
      <point x="1192" y="1035"/>
      <point x="1189" y="1005"/>
      <point x="1183" y="971" type="curve" smooth="yes"/>
      <point x="1093" y="462" type="line" smooth="yes"/>
      <point x="1046" y="196"/>
      <point x="881" y="150"/>
      <point x="673" y="150" type="curve" smooth="yes"/>
    </contour>
    <contour>
      <point x="91" y="0" type="line"/>
      <point x="667" y="0" type="line" smooth="yes"/>
      <point x="1034" y="0"/>
      <point x="1242" y="169"/>
      <point x="1298" y="482" type="curve" smooth="yes"/>
      <point x="1382" y="959" type="line" smooth="yes"/>
      <point x="1389" y="999"/>
      <point x="1393" y="1037"/>
      <point x="1393" y="1073" type="curve" smooth="yes"/>
      <point x="1393" y="1291"/>
      <point x="1263" y="1446"/>
      <point x="919" y="1446" type="curve" smooth="yes"/>
      <point x="345" y="1446" type="line"/>
    </contour>
    <contour>
      <point x="843" y="1446" type="move" name="top"/>
    </contour>
    <contour>
      <point x="364" y="762" type="move" name="mid"/>
    </contour>
  </outline>
</glyph>
<glyph name="F" format="1">
  <advance width="1159"/>
  <unicode hex="0046"/>
  <outline>
    <contour>
      <point x="91" y="0" type="line"/>
      <point x="292" y="0" type="line"/>
      <point x="409" y="664" type="line"/>
      <point x="993" y="664" type="line"/>
      <point x="1019" y="814" type="line"/>
      <point x="435" y="814" type="line"/>
      <point x="520" y="1296" type="line"/>
      <point x="1140" y="1296" type="line"/>
      <point x="1166" y="1446" type="line"/>
      <point x="345" y="1446" type="line"/>
    </contour>
    <contour>
      <point x="783" y="1446" type="move" name="top"/>
    </contour>
  </outline>
</glyph>
<glyph name="G" format="1">
  <advance width="1556"/>
  <unicode hex="0047"/>
  <outline>
    <contour>
      <point x="651" y="0" type="move" name="bot"/>
    </contour>
    <contour>
      <point x="903" y="1446" type="move" name="top"/>
    </contour>
    <contour>
      <point x="891" y="1306" type="curve" smooth="yes"/>
      <point x="1125" y="1306"/>
      <point x="1221" y="1281"/>
      <point x="1221" y="1121" type="curve" smooth="yes"/>
      <point x="1221" y="1087"/>
      <point x="1217" y="1048"/>
      <point x="1209" y="1001" type="curve"/>
      <point x="1396" y="1016" type="line"/>
      <point x="1400" y="1043" type="line" smooth="yes"/>
      <point x="1406" y="1084"/>
      <point x="1410" y="1122"/>
      <point x="1410" y="1158" type="curve" smooth="yes"/>
      <point x="1410" y="1348"/>
      <point x="1306" y="1468"/>
      <point x="919" y="1468" type="curve" smooth="yes"/>
      <point x="434" y="1468"/>
      <point x="278" y="1246"/>
      <point x="224" y="940" type="curve" smooth="yes"/>
      <point x="144" y="486" type="line" smooth="yes"/>
      <point x="135" y="436"/>
      <point x="130" y="388"/>
      <point x="130" y="343" type="curve" smooth="yes"/>
      <point x="130" y="121"/>
      <point x="255" y="-22"/>
      <point x="657" y="-22" type="curve" smooth="yes"/>
      <point x="943" y="-22"/>
      <point x="1089" y="89"/>
      <point x="1141" y="246" type="curve"/>
      <point x="1123" y="0" type="line"/>
      <point x="1233" y="0" type="line"/>
      <point x="1362" y="735" type="line"/>
      <point x="817" y="735" type="line"/>
      <point x="791" y="588" type="line"/>
      <point x="1134" y="588" type="line"/>
      <point x="1111" y="455" type="line" smooth="yes"/>
      <point x="1066" y="199"/>
      <point x="943" y="140"/>
      <point x="685" y="140" type="curve" smooth="yes"/>
      <point x="462" y="140"/>
      <point x="332" y="184"/>
      <point x="332" y="365" type="curve" smooth="yes"/>
      <point x="332" y="392"/>
      <point x="335" y="422"/>
      <point x="341" y="455" type="curve" smooth="yes"/>
      <point x="433" y="977" type="line" smooth="yes"/>
      <point x="478" y="1234"/>
      <point x="637" y="1306"/>
    </contour>
  </outline>
</glyph>
<glyph name="I" format="1">
  <advance width="1132"/>
  <unicode hex="0049"/>
  <outline>
    <contour>
      <point x="514" y="0" type="move" name="ogonek"/>
    </contour>
    <contour>
      <point x="695" y="1446" type="move" name="top"/>
    </contour>
    <contour>
      <point x="63" y="0" type="line"/>
      <point x="815" y="0" type="line"/>
      <point x="841" y="150" type="line"/>
      <point x="566" y="150" type="line"/>
      <point x="768" y="1297" type="line"/>
      <point x="1043" y="1297" type="line"/>
      <point x="1069" y="1446" type="line"/>
      <point x="317" y="1446" type="line"/>
      <point x="291" y="1297" type="line"/>
      <point x="567" y="1297" type="line"/>
      <point x="365" y="150" type="line"/>
      <point x="89" y="150" type="line"/>
    </contour>
  </outline>
</glyph>
<glyph name="J" format="1">
  <advance width="1206"/>
  <unicode hex="004A"/>
  <outline>
    <contour>
      <point x="774" y="1446" type="move" name="top"/>
    </contour>
    <contour>
      <point x="393" y="-17" type="curve" smooth="yes"/>
      <point x="718" y="-17"/>
      <point x="890" y="157"/>
      <point x="938" y="431" type="curve" smooth="yes"/>
      <point x="1117" y="1446" type="line"/>
      <point x="363" y="1446" type="line"/>
      <point x="334" y="1281" type="line"/>
      <point x="887" y="1281" type="line"/>
      <point x="738" y="435" type="line" smooth="yes"/>
      <point x="705" y="248"/>
      <point x="607" y="148"/>
      <point x="416" y="148" type="curve" smooth="yes"/>
      <point x="270" y="148"/>
      <point x="114" y="203"/>
      <point x="71" y="225" type="curve"/>
      <point x="-12" y="70" type="line"/>
      <point x="47" y="36"/>
      <point x="225" y="-17"/>
    </contour>
  </outline>
</glyph>
<glyph name="K" format="1">
  <advance width="1418"/>
  <unicode hex="004B"/>
  <outline>
    <contour>
      <point x="582" y="0" type="move" name="bot"/>
    </contour>
    <contour>
      <point x="860" y="1446" type="move" name="top"/>
    </contour>
    <contour>
      <point x="91" y="0" type="line"/>
      <point x="292" y="0" type="line"/>
      <point x="374" y="468" type="line"/>
      <point x="631" y="690" type="line"/>
      <point x="1000" y="0" type="line"/>
      <point x="1223" y="0" type="line"/>
      <point x="791" y="798" type="line"/>
      <point x="1448" y="1446" type="line"/>
      <point x="1230" y="1446" type="line"/>
      <point x="956" y="1183"/>
      <point x="677" y="927"/>
      <point x="407" y="657" type="curve"/>
      <point x="546" y="1446" type="line"/>
      <point x="345" y="1446" type="line"/>
    </contour>
  </outline>
</glyph>
<glyph name="M" format="1">
  <advance width="1778"/>
  <unicode hex="004D"/>
  <outline>
    <contour>
      <point x="1013" y="1446" type="move" name="top"/>
    </contour>
    <contour>
      <point x="91" y="0" type="line"/>
      <point x="283" y="0" type="line"/>
      <point x="479" y="1117" type="line"/>
      <point x="769" y="458" type="line"/>
      <point x="918" y="458" type="line"/>
      <point x="1440" y="1121" type="line"/>
      <point x="1243" y="0" type="line"/>
      <point x="1433" y="0" type="line"/>
      <point x="1687" y="1446" type="line"/>
      <point x="1509" y="1446" type="line"/>
      <point x="875" y="638" type="line"/>
      <point x="530" y="1446" type="line"/>
      <point x="345" y="1446" type="line"/>
    </contour>
  </outline>
</glyph>
<glyph name="P" format="1">
  <advance width="1326"/>
  <unicode hex="0050"/>
  <outline>
    <contour>
      <point x="843" y="1446" type="move" name="top"/>
    </contour>
    <contour>
      <point x="91" y="0" type="line"/>
      <point x="293" y="0" type="line"/>
      <point x="386" y="529" type="line"/>
      <point x="759" y="529" type="line" smooth="yes"/>
      <point x="1005" y="529"/>
      <point x="1184" y="645"/>
      <point x="1245" y="991" type="curve" smooth="yes"/>
      <point x="1254" y="1042"/>
      <point x="1258" y="1088"/>
      <point x="1258" y="1129" type="curve" smooth="yes"/>
      <point x="1258" y="1356"/>
      <point x="1129" y="1446"/>
      <point x="923" y="1446" type="curve" smooth="yes"/>
      <point x="345" y="1446" type="line"/>
    </contour>
    <contour>
      <point x="413" y="682" type="line"/>
      <point x="521" y="1293" type="line"/>
      <point x="903" y="1293" type="line" smooth="yes"/>
      <point x="1025" y="1293"/>
      <point x="1057" y="1214"/>
      <point x="1057" y="1119" type="curve" smooth="yes"/>
      <point x="1057" y="1073"/>
      <point x="1049" y="1023"/>
      <point x="1041" y="977" type="curve" smooth="yes"/>
      <point x="1015" y="828"/>
      <point x="965" y="682"/>
      <point x="790" y="682" type="curve" smooth="yes"/>
    </contour>
  </outline>
</glyph>
<glyph name="R" format="1">
  <advance width="1464"/>
  <unicode hex="0052"/>
  <outline>
    <contour>
      <point x="605" y="0" type="move" name="bot"/>
    </contour>
    <contour>
      <point x="843" y="1446" type="move" name="top"/>
    </contour>
    <contour>
      <point x="91" y="0" type="line"/>
      <point x="293" y="0" type="line"/>
      <point x="398" y="599" type="line"/>
      <point x="398" y="599"/>
      <point x="843" y="600"/>
      <point x="854" y="600" type="curve"/>
      <point x="1036" y="0" type="line"/>
      <point x="1243" y="0" type="line"/>
      <point x="1048" y="636" type="line"/>
      <point x="1178" y="687"/>
      <point x="1278" y="784"/>
      <point x="1319" y="1018" type="curve" smooth="yes"/>
      <point x="1327" y="1066"/>
      <point x="1331" y="1108"/>
      <point x="1331" y="1147" type="curve" smooth="yes"/>
      <point x="1331" y="1369"/>
      <point x="1197" y="1446"/>
      <point x="990" y="1446" type="curve" smooth="yes"/>
      <point x="345" y="1446" type="line"/>
    </contour>
    <contour>
      <point x="425" y="752" type="line"/>
      <point x="521" y="1293" type="line"/>
      <point x="970" y="1293" type="line" smooth="yes"/>
      <point x="1095" y="1293"/>
      <point x="1128" y="1219"/>
      <point x="1128" y="1127" type="curve" smooth="yes"/>
      <point x="1128" y="1086"/>
      <point x="1121" y="1043"/>
      <point x="1114" y="1000" type="curve" smooth="yes"/>
      <point x="1089" y="861"/>
      <point x="1026" y="752"/>
      <point x="851" y="752" type="curve" smooth="yes"/>
    </contour>
  </outline>
</glyph>
<glyph name="T" format="1">
  <advance width="1204"/>
  <unicode hex="0054"/>
  <outline>
    <contour>
      <point x="475" y="0" type="move" name="center"/>
    </contour>
    <contour>
      <point x="608" y="753" type="move" name="mid"/>
    </contour>
    <contour>
      <point x="741" y="1446" type="move" name="top"/>
    </contour>
    <contour>
      <point x="475" y="0" type="move" name="bot"/>
    </contour>
    <contour>
      <point x="374" y="0" type="line"/>
      <point x="575" y="0" type="line"/>
      <point x="800" y="1281" type="line"/>
      <point x="1218" y="1281" type="line"/>
      <point x="1247" y="1446" type="line"/>
      <point x="211" y="1446" type="line"/>
      <point x="182" y="1281" type="line"/>
      <point x="599" y="1281" type="line"/>
    </contour>
  </outline>
</glyph>
<glyph name="W" format="1">
  <advance width="2048"/>
  <unicode hex="0057"/>
  <outline>
    <contour>
      <point x="1164" y="1446" type="move" name="top"/>
    </contour>
    <contour>
      <point x="395" y="0" type="line"/>
      <point x="547" y="0" type="line"/>
      <point x="1127" y="1232" type="line"/>
      <point x="1263" y="0" type="line"/>
      <point x="1415" y="0" type="line"/>
      <point x="2063" y="1446" type="line"/>
      <point x="1880" y="1446" type="line"/>
      <point x="1396" y="346" type="line"/>
      <point x="1260" y="1446" type="line"/>
      <point x="1045" y="1446" type="line"/>
      <point x="537" y="346" type="line"/>
      <point x="423" y="1446" type="line"/>
      <point x="239" y="1446" type="line"/>
    </contour>
  </outline>
</glyph>
<glyph name="X" format="1">
  <advance width="1336"/>
  <unicode hex="0058"/>
  <outline>
    <contour>
      <point x="-33" y="0" type="line"/>
      <point x="179" y="0" type="line"/>
      <point x="640" y="568" type="line"/>
      <point x="897" y="0" type="line"/>
      <point x="1115" y="0" type="line"/>
      <point x="775" y="734" type="line"/>
      <point x="1354" y="1446" type="line"/>
      <point x="1137" y="1446" type="line"/>
      <point x="700" y="898" type="line"/>
      <point x="446" y="1446" type="line"/>
      <point x="243" y="1446" type="line"/>
      <point x="566" y="731" type="line"/>
    </contour>
  </outline>
</glyph>
<glyph name="Y" format="1">
  <advance width="1318"/>
  <unicode hex="0059"/>
  <outline>
    <contour>
      <point x="806" y="1446" type="move" name="top"/>
    </contour>
    <contour>
      <point x="433" y="0" type="line"/>
      <point x="634" y="0" type="line"/>
      <point x="734" y="568" type="line"/>
      <point x="1397" y="1446" type="line"/>
      <point x="1190" y="1446" type="line"/>
      <point x="665" y="744" type="line"/>
      <point x="388" y="1446" type="line"/>
      <point x="175" y="1446" type="line"/>
      <point x="533" y="568" type="line"/>
    </contour>
  </outline>
</glyph>
<glyph name="Z" format="1">
  <advance width="1242"/>
  <unicode hex="005A"/>
  <outline>
    <contour>
      <point x="790" y="1446" type="move" name="top"/>
    </contour>
    <contour>
      <point x="53" y="0" type="line"/>
      <point x="969" y="0" type="line"/>
      <point x="998" y="165" type="line"/>
      <point x="304" y="165" type="line"/>
      <point x="1184" y="1295" type="line"/>
      <point x="1210" y="1446" type="line"/>
      <point x="338" y="1446" type="line"/>
      <point x="309" y="1281" type="line"/>
      <point x="960" y="1281" type="line"/>
      <point x="79" y="150" type="line"/>
    </contour>
  </outline>
</glyph>
<glyph name="bracketleft" format="1">
  <advance width="768"/>
  <unicode hex="005B"/>
  <outline>
    <contour>
      <point x="114" y="-76" type="line"/>
      <point x="492" y="-76" type="line"/>
      <point x="516" y="58" type="line"/>
      <point x="326" y="58" type="line"/>
      <point x="562" y="1396" type="line"/>
      <point x="752" y="1396" type="line"/>
      <point x="776" y="1529" type="line"/>
      <point x="398" y="1529" type="line"/>
    </contour>
  </outline>
</glyph>
<glyph name="bracketright" format="1">
  <advance width="768"/>
  <unicode hex="005D"/>
  <outline>
    <contour>
      <point x="53" y="-76" type="line"/>
      <point x="431" y="-76" type="line"/>
      <point x="715" y="1529" type="line"/>
      <point x="337" y="1529" type="line"/>
      <point x="313" y="1395" type="line"/>
      <point x="503" y="1395" type="line"/>
      <point x="267" y="57" type="line"/>
      <point x="77" y="57" type="line"/>
    </contour>
  </outline>
</glyph>
<glyph name="asciicircum" format="1">
  <advance width="1257"/>
  <unicode hex="005E"/>
  <outline>
    <contour>
      <point x="96" y="626" type="line"/>
      <point x="290" y="626" type="line"/>
      <point x="664" y="1161" type="line"/>
      <point x="852" y="626" type="line"/>
      <point x="1045" y="626" type="line"/>
      <point x="793" y="1283" type="line"/>
      <point x="571" y="1283" type="line"/>
    </contour>
  </outline>
</glyph>
<glyph name="grave" format="1">
  <advance width="616"/>
  <unicode hex="0060"/>
  <outline>
    <contour>
      <point x="59" y="1585" type="line"/>
      <point x="226" y="1204" type="line"/>
      <point x="354" y="1204" type="line"/>
      <point x="284" y="1585" type="line"/>
    </contour>
    <contour>
      <point x="280" y="1060" type="move" name="_top"/>
    </contour>
  </outline>
</glyph>
<glyph name="b" format="1">
  <advance width="1204"/>
  <unicode hex="0062"/>
  <outline>
    <contour>
      <point x="720" y="1060" type="move" name="top"/>
    </contour>
    <contour>
      <point x="491" y="-22" type="curve" smooth="yes"/>
      <point x="767" y="-22"/>
      <point x="950" y="139"/>
      <point x="987" y="352" type="curve" smooth="yes"/>
      <point x="1055" y="736" type="line" smooth="yes"/>
      <point x="1059" y="761"/>
      <point x="1062" y="785"/>
      <point x="1062" y="808" type="curve" smooth="yes"/>
      <point x="1062" y="972"/>
      <point x="948" y="1080"/>
      <point x="710" y="1080" type="curve" smooth="yes"/>
      <point x="611" y="1080"/>
      <point x="496" y="1049"/>
      <point x="421" y="1010" type="curve"/>
      <point x="509" y="1506" type="line"/>
      <point x="321" y="1506" type="line"/>
      <point x="55" y="0" type="line"/>
      <point x="194" y="0" type="line"/>
      <point x="231" y="71" type="line"/>
      <point x="281" y="36"/>
      <point x="365" y="-22"/>
    </contour>
    <contour>
      <point x="489" y="126" type="curve" smooth="yes"/>
      <point x="400" y="126"/>
      <point x="326" y="157"/>
      <point x="276" y="188" type="curve"/>
      <point x="397" y="870" type="line"/>
      <point x="472" y="902"/>
      <point x="587" y="936"/>
      <point x="675" y="936" type="curve" smooth="yes"/>
      <point x="797" y="936"/>
      <point x="873" y="890"/>
      <point x="873" y="791" type="curve" smooth="yes"/>
      <point x="873" y="778"/>
      <point x="872" y="765"/>
      <point x="869" y="750" type="curve" smooth="yes"/>
      <point x="796" y="332" type="line" smooth="yes"/>
      <point x="773" y="202"/>
      <point x="637" y="126"/>
    </contour>
  </outline>
</glyph>
<glyph name="d" format="1">
  <advance width="1200"/>
  <unicode hex="0064"/>
  <outline>
    <contour>
      <point x="1011" y="1275" type="move" name="mid"/>
    </contour>
    <contour>
      <point x="882" y="1060" type="move" name="caron.alt"/>
    </contour>
    <contour>
      <point x="640" y="1060" type="move" name="top"/>
    </contour>
    <contour>
      <point x="433" y="-22" type="curve" smooth="yes"/>
      <point x="542" y="-22"/>
      <point x="666" y="22"/>
      <point x="737" y="70" type="curve"/>
      <point x="755" y="0" type="line"/>
      <point x="883" y="0" type="line"/>
      <point x="1149" y="1506" type="line"/>
      <point x="961" y="1506" type="line"/>
      <point x="879" y="1040" type="line"/>
      <point x="817" y="1064"/>
      <point x="718" y="1080"/>
      <point x="651" y="1080" type="curve" smooth="yes"/>
      <point x="343" y="1080"/>
      <point x="184" y="948"/>
      <point x="147" y="735" type="curve" smooth="yes"/>
      <point x="76" y="335" type="line" smooth="yes"/>
      <point x="71" y="307"/>
      <point x="68" y="280"/>
      <point x="68" y="254" type="curve" smooth="yes"/>
      <point x="68" y="92"/>
      <point x="170" y="-22"/>
    </contour>
    <contour>
      <point x="471" y="126" type="curve" smooth="yes"/>
      <point x="347" y="126"/>
      <point x="258" y="177"/>
      <point x="258" y="282" type="curve" smooth="yes"/>
      <point x="258" y="294"/>
      <point x="259" y="307"/>
      <point x="262" y="321" type="curve" smooth="yes"/>
      <point x="338" y="756" type="line" smooth="yes"/>
      <point x="361" y="886"/>
      <point x="479" y="936"/>
      <point x="627" y="936" type="curve" smooth="yes"/>
      <point x="715" y="936"/>
      <point x="801" y="919"/>
      <point x="852" y="892" type="curve"/>
      <point x="728" y="189" type="line"/>
      <point x="681" y="163"/>
      <point x="578" y="126"/>
    </contour>
  </outline>
</glyph>
<glyph name="e" format="1">
  <advance width="1138"/>
  <unicode hex="0065"/>
  <outline>
    <contour>
      <point x="496" y="0" type="move" name="bot"/>
    </contour>
    <contour>
      <point x="604" y="0" type="move" name="ogonek"/>
    </contour>
    <contour>
      <point x="678" y="1060" type="move" name="top"/>
    </contour>
    <contour>
      <point x="492" y="-22" type="curve" smooth="yes"/>
      <point x="786" y="-22"/>
      <point x="890" y="32"/>
      <point x="960" y="282" type="curve"/>
      <point x="794" y="282" type="line"/>
      <point x="750" y="122"/>
      <point x="694" y="122"/>
      <point x="517" y="122" type="curve" smooth="yes"/>
      <point x="355" y="122"/>
      <point x="297" y="163"/>
      <point x="297" y="270" type="curve" smooth="yes"/>
      <point x="297" y="295"/>
      <point x="300" y="324"/>
      <point x="306" y="357" type="curve" smooth="yes"/>
      <point x="332" y="506" type="line"/>
      <point x="1002" y="506" type="line"/>
      <point x="1046" y="758" type="line" smooth="yes"/>
      <point x="1050" y="782"/>
      <point x="1053" y="805"/>
      <point x="1053" y="827" type="curve" smooth="yes"/>
      <point x="1053" y="986"/>
      <point x="935" y="1080"/>
      <point x="679" y="1080" type="curve" smooth="yes"/>
      <point x="375" y="1080"/>
      <point x="221" y="943"/>
      <point x="186" y="743" type="curve" smooth="yes"/>
      <point x="121" y="374" type="line" smooth="yes"/>
      <point x="114" y="334"/>
      <point x="110" y="296"/>
      <point x="110" y="262" type="curve" smooth="yes"/>
      <point x="110" y="72"/>
      <point x="224" y="-22"/>
    </contour>
    <contour>
      <point x="354" y="633" type="line"/>
      <point x="377" y="760" type="line" smooth="yes"/>
      <point x="400" y="891"/>
      <point x="504" y="936"/>
      <point x="654" y="936" type="curve" smooth="yes"/>
      <point x="785" y="936"/>
      <point x="871" y="912"/>
      <point x="871" y="814" type="curve" smooth="yes"/>
      <point x="871" y="803"/>
      <point x="870" y="791"/>
      <point x="868" y="778" type="curve" smooth="yes"/>
      <point x="842" y="633" type="line"/>
    </contour>
  </outline>
</glyph>
<glyph name="g" format="1">
  <advance width="1182"/>
  <unicode hex="0067"/>
  <outline>
    <contour>
      <point x="693" y="1060" type="move" name="top"/>
    </contour>
    <contour>
      <point x="472" y="-408" type="curve" smooth="yes"/>
      <point x="752" y="-408"/>
      <point x="911" y="-223"/>
      <point x="955" y="25" type="curve" smooth="yes"/>
      <point x="1138" y="1060" type="line"/>
      <point x="950" y="1060" type="line"/>
      <point x="935" y="975" type="line"/>
      <point x="913" y="1025"/>
      <point x="789" y="1080"/>
      <point x="681" y="1080" type="curve" smooth="yes"/>
      <point x="405" y="1080"/>
      <point x="255" y="941"/>
      <point x="217" y="728" type="curve" smooth="yes"/>
      <point x="156" y="379" type="line" smooth="yes"/>
      <point x="151" y="350"/>
      <point x="148" y="323"/>
      <point x="148" y="298" type="curve" smooth="yes"/>
      <point x="148" y="130"/>
      <point x="262" y="40"/>
      <point x="498" y="40" type="curve" smooth="yes"/>
      <point x="571" y="40"/>
      <point x="713" y="60"/>
      <point x="783" y="116" type="curve"/>
      <point x="757" y="-31" type="line" smooth="yes"/>
      <point x="730" y="-188"/>
      <point x="643" y="-265"/>
      <point x="458" y="-265" type="curve" smooth="yes"/>
      <point x="358" y="-265"/>
      <point x="250" y="-248"/>
      <point x="196" y="-227" type="curve"/>
      <point x="129" y="-368" type="line"/>
      <point x="202" y="-397"/>
      <point x="329" y="-408"/>
    </contour>
    <contour>
      <point x="552" y="184" type="curve" smooth="yes"/>
      <point x="427" y="184"/>
      <point x="335" y="216"/>
      <point x="335" y="316" type="curve" smooth="yes"/>
      <point x="335" y="326"/>
      <point x="336" y="338"/>
      <point x="338" y="350" type="curve" smooth="yes"/>
      <point x="409" y="748" type="line" smooth="yes"/>
      <point x="432" y="878"/>
      <point x="536" y="936"/>
      <point x="684" y="936" type="curve" smooth="yes"/>
      <point x="835" y="936"/>
      <point x="904" y="892"/>
      <point x="904" y="815" type="curve" smooth="yes"/>
      <point x="904" y="807"/>
      <point x="904" y="799"/>
      <point x="902" y="790" type="curve" smooth="yes"/>
      <point x="809" y="264" type="line"/>
      <point x="775" y="240"/>
      <point x="692" y="184"/>
    </contour>
  </outline>
</glyph>
<glyph name="k" format="1">
  <advance width="1145"/>
  <unicode hex="006B"/>
  <outline>
    <contour>
      <point x="53" y="0" type="line"/>
      <point x="241" y="0" type="line"/>
      <point x="300" y="334" type="line"/>
      <point x="487" y="492" type="line"/>
      <point x="780" y="0" type="line"/>
      <point x="997" y="0" type="line"/>
      <point x="628" y="594" type="line"/>
      <point x="1141" y="1060" type="line"/>
      <point x="935" y="1060" type="line"/>
      <point x="334" y="524" type="line"/>
      <point x="507" y="1506" type="line"/>
      <point x="319" y="1506" type="line"/>
    </contour>
    <contour>
      <point x="668" y="1060" type="move" name="top"/>
    </contour>
    <contour>
      <point x="493" y="0" type="move" name="bot"/>
    </contour>
  </outline>
</glyph>
<glyph name="n" format="1">
  <advance width="1224"/>
  <unicode hex="006E"/>
  <outline>
    <contour>
      <point x="518" y="0" type="move" name="bot"/>
    </contour>
    <contour>
      <point x="776" y="1060" type="move" name="top"/>
    </contour>
    <contour>
      <point x="91" y="0" type="line"/>
      <point x="279" y="0" type="line"/>
      <point x="412" y="755" type="line" smooth="yes"/>
      <point x="430" y="857"/>
      <point x="526" y="936"/>
      <point x="710" y="936" type="curve" smooth="yes"/>
      <point x="828" y="936"/>
      <point x="907" y="895"/>
      <point x="907" y="810" type="curve" smooth="yes"/>
      <point x="907" y="801"/>
      <point x="906" y="791"/>
      <point x="904" y="781" type="curve" smooth="yes"/>
      <point x="767" y="0" type="line"/>
      <point x="955" y="0" type="line"/>
      <point x="1091" y="770" type="line" smooth="yes"/>
      <point x="1095" y="792"/>
      <point x="1097" y="814"/>
      <point x="1097" y="835" type="curve" smooth="yes"/>
      <point x="1097" y="973"/>
      <point x="1010" y="1080"/>
      <point x="783" y="1080" type="curve" smooth="yes"/>
      <point x="629" y="1080"/>
      <point x="522" y="1029"/>
      <point x="448" y="957" type="curve"/>
      <point x="466" y="1060" type="line"/>
      <point x="278" y="1060" type="line"/>
    </contour>
  </outline>
</glyph>
<glyph name="o" format="1">
  <advance width="1174"/>
  <unicode hex="006F"/>
  <outline>
    <contour>
      <point x="501" y="0" type="move" name="bot"/>
    </contour>
    <contour>
      <point x="542" y="0" type="move" name="ogonek"/>
    </contour>
    <contour>
      <point x="679" y="1060" type="move" name="top"/>
    </contour>
    <contour>
      <point x="515" y="122" type="curve" smooth="yes"/>
      <point x="380" y="122"/>
      <point x="292" y="160"/>
      <point x="292" y="262" type="curve" smooth="yes"/>
      <point x="292" y="274"/>
      <point x="293" y="286"/>
      <point x="295" y="299" type="curve" smooth="yes"/>
      <point x="376" y="758" type="line" smooth="yes"/>
      <point x="399" y="889"/>
      <point x="509" y="936"/>
      <point x="659" y="936" type="curve" smooth="yes"/>
      <point x="791" y="936"/>
      <point x="881" y="898"/>
      <point x="881" y="795" type="curve" smooth="yes"/>
      <point x="881" y="784"/>
      <point x="880" y="771"/>
      <point x="878" y="758" type="curve" smooth="yes"/>
      <point x="797" y="299" type="line" smooth="yes"/>
      <point x="774" y="168"/>
      <point x="662" y="122"/>
    </contour>
    <contour>
      <point x="490" y="-22" type="curve" smooth="yes"/>
      <point x="806" y="-22"/>
      <point x="954" y="119"/>
      <point x="988" y="315" type="curve" smooth="yes"/>
      <point x="1064" y="742" type="line" smooth="yes"/>
      <point x="1068" y="766"/>
      <point x="1070" y="790"/>
      <point x="1070" y="812" type="curve" smooth="yes"/>
      <point x="1070" y="971"/>
      <point x="961" y="1080"/>
      <point x="684" y="1080" type="curve" smooth="yes"/>
      <point x="365" y="1080"/>
      <point x="220" y="938"/>
      <point x="186" y="742" type="curve" smooth="yes"/>
      <point x="110" y="315" type="line" smooth="yes"/>
      <point x="106" y="290"/>
      <point x="103" y="267"/>
      <point x="103" y="244" type="curve" smooth="yes"/>
      <point x="103" y="86"/>
      <point x="211" y="-22"/>
    </contour>
  </outline>
</glyph>
<glyph name="p" format="1">
  <advance width="1198"/>
  <unicode hex="0070"/>
  <outline>
    <contour>
      <point x="776" y="1060" type="move" name="top"/>
    </contour>
    <contour>
      <point x="55" y="-408" type="line"/>
      <point x="243" y="-408" type="line"/>
      <point x="321" y="34" type="line"/>
      <point x="367" y="8"/>
      <point x="442" y="-22"/>
      <point x="561" y="-22" type="curve" smooth="yes"/>
      <point x="837" y="-22"/>
      <point x="1014" y="131"/>
      <point x="1051" y="344" type="curve" smooth="yes"/>
      <point x="1119" y="729" type="line" smooth="yes"/>
      <point x="1124" y="755"/>
      <point x="1126" y="779"/>
      <point x="1126" y="803" type="curve" smooth="yes"/>
      <point x="1126" y="967"/>
      <point x="1016" y="1080"/>
      <point x="779" y="1080" type="curve" smooth="yes"/>
      <point x="658" y="1080"/>
      <point x="534" y="1030"/>
      <point x="470" y="980" type="curve"/>
      <point x="462" y="1060" type="line"/>
      <point x="314" y="1060" type="line"/>
    </contour>
    <contour>
      <point x="574" y="122" type="curve" smooth="yes"/>
      <point x="465" y="122"/>
      <point x="390" y="152"/>
      <point x="346" y="179" type="curve"/>
      <point x="460" y="824" type="line"/>
      <point x="482" y="850"/>
      <point x="592" y="936"/>
      <point x="725" y="936" type="curve" smooth="yes"/>
      <point x="849" y="936"/>
      <point x="937" y="883"/>
      <point x="937" y="780" type="curve" smooth="yes"/>
      <point x="937" y="769"/>
      <point x="936" y="757"/>
      <point x="934" y="744" type="curve" smooth="yes"/>
      <point x="860" y="324" type="line" smooth="yes"/>
      <point x="837" y="194"/>
      <point x="722" y="122"/>
    </contour>
  </outline>
</glyph>
<glyph name="q" format="1">
  <advance width="1200"/>
  <unicode hex="0071"/>
  <outline>
    <contour>
      <point x="695" y="-408" type="line"/>
      <point x="883" y="-408" type="line"/>
      <point x="1142" y="1060" type="line"/>
      <point x="954" y="1060" type="line"/>
      <point x="939" y="975" type="line"/>
      <point x="917" y="1025"/>
      <point x="799" y="1080"/>
      <point x="691" y="1080" type="curve" smooth="yes"/>
      <point x="415" y="1080"/>
      <point x="255" y="941"/>
      <point x="217" y="728" type="curve" smooth="yes"/>
      <point x="144" y="314" type="line" smooth="yes"/>
      <point x="140" y="292"/>
      <point x="138" y="270"/>
      <point x="138" y="250" type="curve" smooth="yes"/>
      <point x="138" y="83"/>
      <point x="268" y="-22"/>
      <point x="510" y="-22" type="curve" smooth="yes"/>
      <point x="583" y="-22"/>
      <point x="701" y="-3"/>
      <point x="775" y="47" type="curve"/>
    </contour>
    <contour>
      <point x="547" y="122" type="curve" smooth="yes"/>
      <point x="422" y="122"/>
      <point x="324" y="151"/>
      <point x="324" y="251" type="curve" smooth="yes"/>
      <point x="324" y="261"/>
      <point x="325" y="272"/>
      <point x="327" y="284" type="curve" smooth="yes"/>
      <point x="409" y="748" type="line" smooth="yes"/>
      <point x="432" y="878"/>
      <point x="546" y="936"/>
      <point x="694" y="936" type="curve" smooth="yes"/>
      <point x="849" y="936"/>
      <point x="911" y="879"/>
      <point x="911" y="823" type="curve" smooth="yes"/>
      <point x="911" y="819"/>
      <point x="911" y="814"/>
      <point x="910" y="810" type="curve" smooth="yes"/>
      <point x="802" y="201" type="line"/>
      <point x="788" y="180"/>
      <point x="687" y="122"/>
    </contour>
  </outline>
</glyph>
<glyph name="s" format="1">
  <advance width="982"/>
  <unicode hex="0073"/>
  <outline>
    <contour>
      <point x="422" y="0" type="move" name="bot"/>
    </contour>
    <contour>
      <point x="614" y="1060" type="move" name="top"/>
    </contour>
    <contour>
      <point x="427" y="-22" type="curve" smooth="yes"/>
      <point x="679" y="-22"/>
      <point x="799" y="116"/>
      <point x="829" y="283" type="curve" smooth="yes"/>
      <point x="836" y="322"/>
      <point x="840" y="355"/>
      <point x="840" y="384" type="curve" smooth="yes"/>
      <point x="840" y="479"/>
      <point x="797" y="531"/>
      <point x="670" y="585" type="curve" smooth="yes"/>
      <point x="438" y="683" type="line"/>
      <point x="384" y="704"/>
      <point x="364" y="723"/>
      <point x="364" y="763" type="curve" smooth="yes"/>
      <point x="364" y="773"/>
      <point x="366" y="785"/>
      <point x="368" y="799" type="curve" smooth="yes"/>
      <point x="385" y="895"/>
      <point x="424" y="936"/>
      <point x="596" y="936" type="curve" smooth="yes"/>
      <point x="685" y="936"/>
      <point x="808" y="903"/>
      <point x="865" y="878" type="curve"/>
      <point x="933" y="1022" type="line"/>
      <point x="860" y="1053"/>
      <point x="735" y="1080"/>
      <point x="586" y="1080" type="curve" smooth="yes"/>
      <point x="324" y="1080"/>
      <point x="223" y="969"/>
      <point x="191" y="790" type="curve" smooth="yes"/>
      <point x="187" y="767"/>
      <point x="185" y="746"/>
      <point x="185" y="727" type="curve" smooth="yes"/>
      <point x="185" y="635"/>
      <point x="233" y="581"/>
      <point x="353" y="536" type="curve"/>
      <point x="589" y="443" type="line" smooth="yes"/>
      <point x="656" y="416"/>
      <point x="675" y="387"/>
      <point x="675" y="342" type="curve" smooth="yes"/>
      <point x="675" y="324"/>
      <point x="672" y="304"/>
      <point x="668" y="281" type="curve" smooth="yes"/>
      <point x="653" y="192"/>
      <point x="594" y="122"/>
      <point x="427" y="122" type="curve" smooth="yes"/>
      <point x="283" y="122"/>
      <point x="169" y="176"/>
      <point x="126" y="202" type="curve"/>
      <point x="56" y="64" type="line"/>
      <point x="99" y="37"/>
      <point x="229" y="-22"/>
    </contour>
  </outline>
</glyph>
<glyph name="u" format="1">
  <advance width="1222"/>
  <unicode hex="0075"/>
  <outline>
    <contour>
      <point x="865" y="0" type="move" name="ogonek"/>
    </contour>
    <contour>
      <point x="717" y="1060" type="move" name="top"/>
    </contour>
    <contour>
      <point x="444" y="-22" type="curve" smooth="yes"/>
      <point x="598" y="-22"/>
      <point x="709" y="38"/>
      <point x="780" y="133" type="curve"/>
      <point x="776" y="0" type="line"/>
      <point x="944" y="0" type="line"/>
      <point x="1131" y="1060" type="line"/>
      <point x="943" y="1060" type="line"/>
      <point x="811" y="309" type="line" smooth="yes"/>
      <point x="795" y="220"/>
      <point x="690" y="122"/>
      <point x="506" y="122" type="curve" smooth="yes"/>
      <point x="388" y="122"/>
      <point x="318" y="172"/>
      <point x="318" y="258" type="curve" smooth="yes"/>
      <point x="318" y="268"/>
      <point x="319" y="278"/>
      <point x="321" y="289" type="curve" smooth="yes"/>
      <point x="457" y="1060" type="line"/>
      <point x="269" y="1060" type="line"/>
      <point x="134" y="290" type="line" smooth="yes"/>
      <point x="130" y="268"/>
      <point x="128" y="246"/>
      <point x="128" y="225" type="curve" smooth="yes"/>
      <point x="128" y="86"/>
      <point x="217" y="-22"/>
    </contour>
  </outline>
</glyph>
<glyph name="w" format="1">
  <advance width="1614"/>
  <unicode hex="0077"/>
  <outline>
    <contour>
      <point x="905" y="1060" type="move" name="top"/>
    </contour>
    <contour>
      <point x="264" y="0" type="line"/>
      <point x="442" y="0" type="line"/>
      <point x="862" y="845" type="line"/>
      <point x="984" y="0" type="line"/>
      <point x="1159" y="0" type="line"/>
      <point x="1655" y="1060" type="line"/>
      <point x="1481" y="1060" type="line"/>
      <point x="1108" y="228" type="line"/>
      <point x="988" y="1060" type="line"/>
      <point x="807" y="1060" type="line"/>
      <point x="406" y="228" type="line"/>
      <point x="317" y="1060" type="line"/>
      <point x="145" y="1060" type="line"/>
    </contour>
  </outline>
</glyph>
<glyph name="y" format="1">
  <advance width="1118"/>
  <unicode hex="0079"/>
  <outline>
    <contour>
      <point x="714" y="1060" type="move" name="top"/>
    </contour>
    <contour>
      <point x="69" y="-406" type="line"/>
      <point x="381" y="-406"/>
      <point x="494" y="-280"/>
      <point x="662" y="45" type="curve" smooth="yes"/>
      <point x="1189" y="1060" type="line"/>
      <point x="999" y="1060" type="line"/>
      <point x="579" y="216" type="line"/>
      <point x="404" y="1060" type="line"/>
      <point x="205" y="1060" type="line"/>
      <point x="456" y="4" type="line"/>
      <point x="370" y="-189"/>
      <point x="255" y="-259"/>
      <point x="95" y="-259" type="curve"/>
    </contour>
  </outline>
</glyph>
<glyph name="z" format="1">
  <advance width="951"/>
  <unicode hex="007A"/>
  <outline>
    <contour>
      <point x="426" y="0" type="move" name="bot"/>
    </contour>
    <contour>
      <point x="603" y="1060" type="move" name="top"/>
    </contour>
    <contour>
      <point x="43" y="0" type="line"/>
      <point x="757" y="0" type="line"/>
      <point x="780" y="132" type="line"/>
      <point x="264" y="132" type="line"/>
      <point x="912" y="935" type="line"/>
      <point x="934" y="1060" type="line"/>
      <point x="247" y="1060" type="line"/>
      <point x="223" y="924" type="line"/>
      <point x="706" y="924" type="line"/>
      <point x="65" y="126" type="line"/>
    </contour>
  </outline>
</glyph>
<glyph name="asciitilde" format="1">
  <advance width="881"/>
  <unicode hex="007E"/>
  <outline>
    <contour>
      <point x="575" y="1173" type="curve" smooth="yes"/>
      <point x="695" y="1173"/>
      <point x="811" y="1287"/>
      <point x="840" y="1452" type="curve"/>
      <point x="743" y="1452" type="line"/>
      <point x="732" y="1390"/>
      <point x="691" y="1319"/>
      <point x="610" y="1319" type="curve" smooth="yes"/>
      <point x="539" y="1319"/>
      <point x="443" y="1466"/>
      <point x="306" y="1466" type="curve" smooth="yes"/>
      <point x="186" y="1466"/>
      <point x="70" y="1352"/>
      <point x="41" y="1187" type="curve"/>
      <point x="138" y="1187" type="line"/>
      <point x="149" y="1249"/>
      <point x="190" y="1320"/>
      <point x="271" y="1320" type="curve" smooth="yes"/>
      <point x="342" y="1320"/>
      <point x="438" y="1173"/>
    </contour>
  </outline>
</glyph>
<glyph name="cent" format="1">
  <advance width="1110"/>
  <unicode hex="00A2"/>
  <outline>
    <component base="c"/>
    <contour>
      <point x="624" y="1013" type="line"/>
      <point x="727" y="1013" type="line"/>
      <point x="774" y="1277" type="line"/>
      <point x="671" y="1277" type="line"/>
    </contour>
    <contour>
      <point x="409" y="-205" type="line"/>
      <point x="512" y="-205" type="line"/>
      <point x="559" y="59" type="line"/>
      <point x="456" y="59" type="line"/>
    </contour>
  </outline>
</glyph>
<glyph name="sterling" format="1">
  <advance width="1273"/>
  <unicode hex="00A3"/>
  <outline>
    <contour>
      <point x="130" y="0" type="line"/>
      <point x="905" y="0" type="line"/>
      <point x="934" y="162" type="line"/>
      <point x="360" y="162" type="line"/>
      <point x="501" y="668" type="line"/>
      <point x="999" y="668" type="line"/>
      <point x="1024" y="809" type="line"/>
      <point x="541" y="809" type="line"/>
      <point x="623" y="1104" type="line" smooth="yes"/>
      <point x="671" y="1275"/>
      <point x="769" y="1327"/>
      <point x="873" y="1327" type="curve" smooth="yes"/>
      <point x="974" y="1327"/>
      <point x="1079" y="1278"/>
      <point x="1114" y="1259" type="curve"/>
      <point x="1193" y="1398" type="line"/>
      <point x="1077" y="1459"/>
      <point x="972" y="1484"/>
      <point x="879" y="1484" type="curve" smooth="yes"/>
      <point x="645" y="1484"/>
      <point x="487" y="1319"/>
      <point x="435" y="1125" type="curve"/>
      <point x="348" y="809" type="line"/>
      <point x="178" y="809" type="line"/>
      <point x="153" y="668" type="line"/>
      <point x="310" y="668" type="line"/>
    </contour>
  </outline>
</glyph>
<glyph name="currency" format="1">
  <advance width="1149"/>
  <unicode hex="00A4"/>
  <outline>
    <contour>
      <point x="316" y="862" type="line"/>
      <point x="267" y="798"/>
      <point x="234" y="725"/>
      <point x="234" y="627" type="curve" smooth="yes"/>
      <point x="234" y="600"/>
      <point x="238" y="574"/>
      <point x="244" y="549" type="curve"/>
      <point x="78" y="443" type="line"/>
      <point x="114" y="360" type="line"/>
      <point x="280" y="468" type="line"/>
      <point x="328" y="398"/>
      <point x="406" y="360"/>
      <point x="501" y="360" type="curve" smooth="yes"/>
      <point x="603" y="360"/>
      <point x="704" y="406"/>
      <point x="776" y="486" type="curve"/>
      <point x="921" y="376" type="line"/>
      <point x="987" y="457" type="line"/>
      <point x="836" y="571" type="line"/>
      <point x="865" y="623"/>
      <point x="883" y="676"/>
      <point x="883" y="748" type="curve" smooth="yes"/>
      <point x="883" y="788"/>
      <point x="876" y="826"/>
      <point x="864" y="860" type="curve"/>
      <point x="1072" y="993" type="line"/>
      <point x="1036" y="1075" type="line"/>
      <point x="818" y="935" type="line"/>
      <point x="771" y="990"/>
      <point x="700" y="1018"/>
      <point x="617" y="1018" type="curve" smooth="yes"/>
      <point x="535" y="1018"/>
      <point x="455" y="991"/>
      <point x="389" y="937" type="curve"/>
      <point x="231" y="1061" type="line"/>
      <point x="162" y="979" type="line"/>
    </contour>
    <contour>
      <point x="789" y="739" type="curve" smooth="yes"/>
      <point x="789" y="574"/>
      <point x="656" y="444"/>
      <point x="517" y="444" type="curve" smooth="yes"/>
      <point x="404" y="444"/>
      <point x="331" y="530"/>
      <point x="331" y="642" type="curve" smooth="yes"/>
      <point x="331" y="807"/>
      <point x="465" y="936"/>
      <point x="604" y="936" type="curve" smooth="yes"/>
      <point x="717" y="936"/>
      <point x="789" y="851"/>
    </contour>
  </outline>
</glyph>
<glyph name="dieresis" format="1">
  <advance width="1025"/>
  <unicode hex="00A8"/>
  <outline>
    <contour>
      <point x="447" y="1060" type="move" name="_top"/>
    </contour>
    <contour>
      <point x="142" y="1343" type="line"/>
      <point x="348" y="1343" type="line"/>
      <point x="380" y="1524" type="line"/>
      <point x="174" y="1524" type="line"/>
    </contour>
    <contour>
      <point x="645" y="1343" type="line"/>
      <point x="851" y="1343" type="line"/>
      <point x="883" y="1524" type="line"/>
      <point x="677" y="1524" type="line"/>
    </contour>
  </outline>
</glyph>
<glyph name="copyright" format="1">
  <advance width="1784"/>
  <unicode hex="00A9"/>
  <outline>
    <contour>
      <point x="826" y="287" type="curve" smooth="yes"/>
      <point x="1102" y="287"/>
      <point x="1175" y="422"/>
      <point x="1206" y="598" type="curve" smooth="yes"/>
      <point x="1212" y="632" type="line"/>
      <point x="1096" y="632" type="line"/>
      <point x="1086" y="571" type="line"/>
      <point x="1059" y="419"/>
      <point x="995" y="376"/>
      <point x="842" y="376" type="curve" smooth="yes"/>
      <point x="711" y="376"/>
      <point x="639" y="408"/>
      <point x="639" y="514" type="curve" smooth="yes"/>
      <point x="639" y="531"/>
      <point x="641" y="550"/>
      <point x="645" y="571" type="curve" smooth="yes"/>
      <point x="701" y="890" type="line" smooth="yes"/>
      <point x="728" y="1042"/>
      <point x="816" y="1091"/>
      <point x="967" y="1091" type="curve" smooth="yes"/>
      <point x="1093" y="1091"/>
      <point x="1149" y="1057"/>
      <point x="1149" y="959" type="curve" smooth="yes"/>
      <point x="1149" y="939"/>
      <point x="1147" y="916"/>
      <point x="1142" y="890" type="curve" smooth="yes"/>
      <point x="1131" y="826" type="line"/>
      <point x="1248" y="836" type="line"/>
      <point x="1253" y="861" type="line" smooth="yes"/>
      <point x="1260" y="899"/>
      <point x="1264" y="935"/>
      <point x="1264" y="968" type="curve" smooth="yes"/>
      <point x="1264" y="1095"/>
      <point x="1203" y="1182"/>
      <point x="983" y="1182" type="curve" smooth="yes"/>
      <point x="695" y="1182"/>
      <point x="609" y="1050"/>
      <point x="577" y="868" type="curve" smooth="yes"/>
      <point x="528" y="590" type="line" smooth="yes"/>
      <point x="522" y="558"/>
      <point x="519" y="528"/>
      <point x="519" y="500" type="curve" smooth="yes"/>
      <point x="519" y="371"/>
      <point x="590" y="287"/>
    </contour>
    <contour>
      <point x="781" y="82" type="curve" smooth="yes"/>
      <point x="460" y="82"/>
      <point x="254" y="296"/>
      <point x="254" y="597" type="curve" smooth="yes"/>
      <point x="254" y="637"/>
      <point x="257" y="679"/>
      <point x="265" y="722" type="curve" smooth="yes"/>
      <point x="329" y="1086"/>
      <point x="643" y="1361"/>
      <point x="1007" y="1361" type="curve" smooth="yes"/>
      <point x="1330" y="1361"/>
      <point x="1533" y="1148"/>
      <point x="1533" y="848" type="curve" smooth="yes"/>
      <point x="1533" y="808"/>
      <point x="1530" y="765"/>
      <point x="1522" y="722" type="curve" smooth="yes"/>
      <point x="1458" y="357"/>
      <point x="1147" y="82"/>
    </contour>
    <contour>
      <point x="762" y="-14" type="curve" smooth="yes"/>
      <point x="1178" y="-14"/>
      <point x="1554" y="303"/>
      <point x="1628" y="722" type="curve" smooth="yes"/>
      <point x="1636" y="769"/>
      <point x="1640" y="815"/>
      <point x="1640" y="859" type="curve" smooth="yes"/>
      <point x="1640" y="1206"/>
      <point x="1391" y="1456"/>
      <point x="1022" y="1456" type="curve" smooth="yes"/>
      <point x="609" y="1456"/>
      <point x="230" y="1139"/>
      <point x="156" y="722" type="curve" smooth="yes"/>
      <point x="148" y="675"/>
      <point x="144" y="629"/>
      <point x="144" y="585" type="curve" smooth="yes"/>
      <point x="144" y="236"/>
      <point x="395" y="-14"/>
    </contour>
  </outline>
</glyph>
<glyph name="guillemotleft" format="1">
  <advance width="1054"/>
  <unicode hex="00AB"/>
  <outline>
    <contour>
      <point x="297" y="80" type="line"/>
      <point x="449" y="150" type="line"/>
      <point x="309" y="530" type="line"/>
      <point x="583" y="910" type="line"/>
      <point x="448" y="980" type="line"/>
      <point x="96" y="530" type="line"/>
    </contour>
    <contour>
      <point x="711" y="80" type="line"/>
      <point x="861" y="150" type="line"/>
      <point x="723" y="530" type="line"/>
      <point x="995" y="910" type="line"/>
      <point x="862" y="980" type="line"/>
      <point x="510" y="530" type="line"/>
    </contour>
  </outline>
</glyph>
<glyph name="logicalnot" format="1">
  <advance width="864"/>
  <unicode hex="00AC"/>
  <outline>
    <contour>
      <point x="557" y="333" type="line"/>
      <point x="689" y="333" type="line"/>
      <point x="753" y="692" type="line"/>
      <point x="130" y="692" type="line"/>
      <point x="106" y="556" type="line"/>
      <point x="597" y="556" type="line"/>
    </contour>
  </outline>
</glyph>
<glyph name="softhyphen" format="1">
  <advance width="1024"/>
  <unicode hex="00AD"/>
  <outline>
    <contour>
      <point x="159" y="499" type="line"/>
      <point x="819" y="499" type="line"/>
      <point x="845" y="642" type="line"/>
      <point x="185" y="642" type="line"/>
    </contour>
    <contour>
      <point x="507" y="567" type="move" name="_mid"/>
    </contour>
  </outline>
</glyph>
<glyph name="macron" format="1">
  <advance width="513"/>
  <unicode hex="00AF"/>
  <outline>
    <contour>
      <point x="198" y="1060" type="move" name="_top"/>
    </contour>
    <contour>
      <point x="257" y="1394" type="move" name="_mid"/>
    </contour>
    <contour>
      <point x="-21" y="1321" type="line"/>
      <point x="508" y="1321" type="line"/>
      <point x="534" y="1468" type="line"/>
      <point x="5" y="1468" type="line"/>
    </contour>
  </outline>
</glyph>
<glyph name="plusminus" format="1">
  <advance width="1041"/>
  <unicode hex="00B1"/>
  <outline>
    <contour>
      <point x="431" y="334" type="line"/>
      <point x="552" y="334" type="line"/>
      <point x="601" y="611" type="line"/>
      <point x="854" y="611" type="line"/>
      <point x="875" y="726" type="line"/>
      <point x="622" y="726" type="line"/>
      <point x="668" y="992" type="line"/>
      <point x="547" y="992" type="line"/>
      <point x="501" y="726" type="line"/>
      <point x="248" y="726" type="line"/>
      <point x="227" y="611" type="line"/>
      <point x="480" y="611" type="line"/>
    </contour>
    <contour>
      <point x="120" y="0" type="line"/>
      <point x="747" y="0" type="line"/>
      <point x="768" y="120" type="line"/>
      <point x="141" y="120" type="line"/>
    </contour>
  </outline>
</glyph>
<glyph name="twosuperior" format="1">
  <advance width="1050"/>
  <unicode hex="00B2"/>
  <outline>
    <contour>
      <point x="165" y="694" type="line"/>
      <point x="745" y="694" type="line"/>
      <point x="764" y="804" type="line"/>
      <point x="346" y="804" type="line"/>
      <point x="589" y="974" type="line"/>
      <point x="735" y="1087"/>
      <point x="829" y="1165"/>
      <point x="856" y="1318" type="curve" smooth="yes"/>
      <point x="859" y="1338"/>
      <point x="861" y="1356"/>
      <point x="861" y="1374" type="curve" smooth="yes"/>
      <point x="861" y="1506"/>
      <point x="768" y="1584"/>
      <point x="604" y="1584" type="curve" smooth="yes"/>
      <point x="416" y="1584"/>
      <point x="263" y="1498"/>
      <point x="225" y="1270" type="curve"/>
      <point x="368" y="1270" type="line"/>
      <point x="397" y="1438"/>
      <point x="472" y="1479"/>
      <point x="593" y="1479" type="curve" smooth="yes"/>
      <point x="679" y="1479"/>
      <point x="727" y="1443"/>
      <point x="727" y="1363" type="curve" smooth="yes"/>
      <point x="727" y="1350"/>
      <point x="726" y="1335"/>
      <point x="723" y="1319" type="curve" smooth="yes"/>
      <point x="704" y="1213"/>
      <point x="655" y="1165"/>
      <point x="527" y="1066" type="curve"/>
      <point x="174" y="808" type="line"/>
    </contour>
  </outline>
</glyph>
<glyph name="acute" format="1">
  <advance width="616"/>
  <unicode hex="00B4"/>
  <outline>
    <contour>
      <point x="170" y="1204" type="line"/>
      <point x="298" y="1204" type="line"/>
      <point x="601" y="1585" type="line"/>
      <point x="376" y="1585" type="line"/>
    </contour>
    <contour>
      <point x="194" y="1060" type="move" name="_top"/>
    </contour>
  </outline>
</glyph>
<glyph name="onesuperior" format="1">
  <advance width="1050"/>
  <unicode hex="00B9"/>
  <outline>
    <contour>
      <point x="132" y="694" type="line"/>
      <point x="768" y="694" type="line"/>
      <point x="786" y="795" type="line"/>
      <point x="555" y="795" type="line"/>
      <point x="687" y="1545" type="line"/>
      <point x="580" y="1545" type="line"/>
      <point x="282" y="1512" type="line"/>
      <point x="276" y="1408" type="line"/>
      <point x="536" y="1434" type="line"/>
      <point x="424" y="795" type="line"/>
      <point x="150" y="795" type="line"/>
    </contour>
  </outline>
</glyph>
<glyph name="guillemotright" format="1">
  <advance width="1054"/>
  <unicode hex="00BB"/>
  <outline>
    <contour>
      <point x="192" y="80" type="line"/>
      <point x="544" y="530" type="line"/>
      <point x="343" y="980" type="line"/>
      <point x="193" y="910" type="line"/>
      <point x="331" y="530" type="line"/>
      <point x="59" y="150" type="line"/>
    </contour>
    <contour>
      <point x="606" y="80" type="line"/>
      <point x="958" y="530" type="line"/>
      <point x="757" y="980" type="line"/>
      <point x="605" y="910" type="line"/>
      <point x="745" y="530" type="line"/>
      <point x="471" y="150" type="line"/>
    </contour>
  </outline>
</glyph>
<glyph name="threequarters" format="1">
  <advance width="2047"/>
  <unicode hex="00BE"/>
  <outline>
    <contour>
      <point x="744" y="958" type="curve" smooth="yes"/>
      <point x="744" y="824"/>
      <point x="686" y="746"/>
      <point x="545" y="746" type="curve" smooth="yes"/>
      <point x="423" y="746"/>
      <point x="361" y="767"/>
      <point x="361" y="879" type="curve" smooth="yes"/>
      <point x="361" y="895"/>
      <point x="363" y="912"/>
      <point x="365" y="932" type="curve"/>
      <point x="230" y="932" type="line"/>
      <point x="228" y="912"/>
      <point x="227" y="893"/>
      <point x="227" y="876" type="curve" smooth="yes"/>
      <point x="227" y="707"/>
      <point x="317" y="653"/>
      <point x="522" y="653" type="curve" smooth="yes"/>
      <point x="721" y="653"/>
      <point x="843" y="736"/>
      <point x="871" y="896" type="curve" smooth="yes"/>
      <point x="875" y="918"/>
      <point x="877" y="938"/>
      <point x="877" y="956" type="curve" smooth="yes"/>
      <point x="877" y="1053"/>
      <point x="821" y="1093"/>
      <point x="726" y="1110" type="curve"/>
      <point x="847" y="1126"/>
      <point x="903" y="1187"/>
      <point x="922" y="1297" type="curve" smooth="yes"/>
      <point x="925" y="1313"/>
      <point x="926" y="1327"/>
      <point x="926" y="1341" type="curve" smooth="yes"/>
      <point x="926" y="1462"/>
      <point x="822" y="1515"/>
      <point x="666" y="1515" type="curve"/>
      <point x="485" y="1515"/>
      <point x="344" y="1477"/>
      <point x="299" y="1253" type="curve"/>
      <point x="434" y="1253" type="line"/>
      <point x="461" y="1408"/>
      <point x="525" y="1421"/>
      <point x="650" y="1421" type="curve" smooth="yes"/>
      <point x="754" y="1421"/>
      <point x="793" y="1386"/>
      <point x="793" y="1326" type="curve" smooth="yes"/>
      <point x="793" y="1316"/>
      <point x="792" y="1306"/>
      <point x="790" y="1295" type="curve" smooth="yes"/>
      <point x="773" y="1200"/>
      <point x="754" y="1151"/>
      <point x="538" y="1151" type="curve"/>
      <point x="523" y="1066" type="line"/>
      <point x="695" y="1066"/>
      <point x="744" y="1038"/>
    </contour>
    <contour>
      <point x="1521" y="0" type="line"/>
      <point x="1634" y="0" type="line"/>
      <point x="1671" y="207" type="line"/>
      <point x="1815" y="207" type="line"/>
      <point x="1831" y="298" type="line"/>
      <point x="1687" y="298" type="line"/>
      <point x="1728" y="533" type="line"/>
      <point x="1615" y="533" type="line"/>
      <point x="1574" y="298" type="line"/>
      <point x="1292" y="298" type="line"/>
      <point x="1745" y="892" type="line"/>
      <point x="1604" y="892" type="line"/>
      <point x="1140" y="299" type="line"/>
      <point x="1124" y="207" type="line"/>
      <point x="1558" y="207" type="line"/>
    </contour>
    <contour>
      <point x="553" y="0" type="line"/>
      <point x="685" y="0" type="line"/>
      <point x="1618" y="1446" type="line"/>
      <point x="1492" y="1446" type="line"/>
    </contour>
  </outline>
</glyph>
<glyph name="AE" format="1">
  <advance width="1686"/>
  <unicode hex="00C6"/>
  <outline>
    <contour>
      <point x="1144" y="1446" type="move" name="top"/>
    </contour>
    <contour>
      <point x="-29" y="3" type="line"/>
      <point x="175" y="0" type="line"/>
      <point x="297" y="282" type="line"/>
      <point x="796" y="282" type="line"/>
      <point x="747" y="0" type="line"/>
      <point x="1432" y="0" type="line"/>
      <point x="1458" y="150" type="line"/>
      <point x="964" y="150" type="line"/>
      <point x="1055" y="664" type="line"/>
      <point x="1479" y="664" type="line"/>
      <point x="1505" y="814" type="line"/>
      <point x="1081" y="814" type="line"/>
      <point x="1166" y="1296" type="line"/>
      <point x="1651" y="1296" type="line"/>
      <point x="1677" y="1446" type="line"/>
      <point x="619" y="1446" type="line"/>
    </contour>
    <contour>
      <point x="357" y="417" type="line"/>
      <point x="733" y="1296" type="line"/>
      <point x="975" y="1296" type="line"/>
      <point x="820" y="417" type="line"/>
    </contour>
  </outline>
</glyph>
<glyph name="multiply" format="1">
  <advance width="973"/>
  <unicode hex="00D7"/>
  <outline>
    <contour>
      <point x="175" y="216" type="line"/>
      <point x="466" y="458" type="line"/>
      <point x="671" y="216" type="line"/>
      <point x="803" y="344" type="line"/>
      <point x="608" y="576" type="line"/>
      <point x="884" y="806" type="line"/>
      <point x="799" y="937" type="line"/>
      <point x="508" y="694" type="line"/>
      <point x="303" y="937" type="line"/>
      <point x="169" y="806" type="line"/>
      <point x="366" y="576" type="line"/>
      <point x="88" y="344" type="line"/>
    </contour>
  </outline>
</glyph>
<glyph name="Oslash" format="1">
  <advance width="1546"/>
  <unicode hex="00D8"/>
  <outline>
    <component base="O"/>
    <contour>
      <point x="915" y="1446" type="move" name="top"/>
    </contour>
    <contour>
      <point x="314" y="-195" type="line"/>
      <point x="1316" y="1638" type="line"/>
      <point x="1219" y="1676" type="line"/>
      <point x="218" y="-157" type="line"/>
    </contour>
  </outline>
</glyph>
<glyph name="Thorn" format="1">
  <advance width="1320"/>
  <unicode hex="00DE"/>
  <outline>
    <contour>
      <point x="85" y="0" type="line"/>
      <point x="287" y="0" type="line"/>
      <point x="345" y="331" type="line"/>
      <point x="718" y="331" type="line" smooth="yes"/>
      <point x="964" y="331"/>
      <point x="1140" y="427"/>
      <point x="1201" y="773" type="curve" smooth="yes"/>
      <point x="1210" y="823"/>
      <point x="1214" y="867"/>
      <point x="1214" y="907" type="curve" smooth="yes"/>
      <point x="1214" y="1132"/>
      <point x="1080" y="1208"/>
      <point x="874" y="1208" type="curve" smooth="yes"/>
      <point x="500" y="1208" type="line"/>
      <point x="541" y="1446" type="line"/>
      <point x="339" y="1446" type="line"/>
    </contour>
    <contour>
      <point x="372" y="484" type="line"/>
      <point x="473" y="1055" type="line"/>
      <point x="853" y="1055" type="line" smooth="yes"/>
      <point x="978" y="1055"/>
      <point x="1010" y="981"/>
      <point x="1010" y="889" type="curve" smooth="yes"/>
      <point x="1010" y="848"/>
      <point x="1004" y="803"/>
      <point x="996" y="759" type="curve" smooth="yes"/>
      <point x="970" y="610"/>
      <point x="924" y="484"/>
      <point x="749" y="484" type="curve" smooth="yes"/>
    </contour>
  </outline>
</glyph>
<glyph name="germandbls" format="1">
  <advance width="1281"/>
  <unicode hex="00DF"/>
  <outline>
    <contour>
      <point x="59" y="0" type="line"/>
      <point x="247" y="0" type="line"/>
      <point x="447" y="1131" type="line" smooth="yes"/>
      <point x="477" y="1305"/>
      <point x="601" y="1332"/>
      <point x="747" y="1332" type="curve" smooth="yes"/>
      <point x="865" y="1332"/>
      <point x="943" y="1305"/>
      <point x="943" y="1186" type="curve" smooth="yes"/>
      <point x="943" y="1166"/>
      <point x="940" y="1144"/>
      <point x="936" y="1119" type="curve" smooth="yes"/>
      <point x="913" y="989"/>
      <point x="848" y="912"/>
      <point x="630" y="912" type="curve"/>
      <point x="605" y="770" type="line"/>
      <point x="814" y="770"/>
      <point x="954" y="750"/>
      <point x="954" y="569" type="curve" smooth="yes"/>
      <point x="954" y="544"/>
      <point x="951" y="516"/>
      <point x="946" y="485" type="curve" smooth="yes"/>
      <point x="892" y="182"/>
      <point x="685" y="168"/>
      <point x="413" y="148" type="curve"/>
      <point x="405" y="0" type="line"/>
      <point x="811" y="0"/>
      <point x="1056" y="119"/>
      <point x="1121" y="488" type="curve" smooth="yes"/>
      <point x="1129" y="533"/>
      <point x="1133" y="572"/>
      <point x="1133" y="606" type="curve" smooth="yes"/>
      <point x="1133" y="799"/>
      <point x="1018" y="836"/>
      <point x="926" y="878" type="curve"/>
      <point x="1039" y="908"/>
      <point x="1099" y="979"/>
      <point x="1126" y="1135" type="curve" smooth="yes"/>
      <point x="1131" y="1164"/>
      <point x="1134" y="1190"/>
      <point x="1134" y="1216" type="curve" smooth="yes"/>
      <point x="1134" y="1381"/>
      <point x="1026" y="1483"/>
      <point x="783" y="1483" type="curve" smooth="yes"/>
      <point x="527" y="1483"/>
      <point x="306" y="1401"/>
      <point x="254" y="1103" type="curve" smooth="yes"/>
    </contour>
  </outline>
</glyph>
<glyph name="ae" format="1">
  <advance width="1741"/>
  <unicode hex="00E6"/>
  <outline>
    <contour>
      <point x="990" y="1060" type="move" name="top"/>
    </contour>
    <contour>
      <point x="372" y="-22" type="curve" smooth="yes"/>
      <point x="609" y="-22"/>
      <point x="726" y="68"/>
      <point x="796" y="178" type="curve"/>
      <point x="820" y="75"/>
      <point x="899" y="-22"/>
      <point x="1092" y="-22" type="curve" smooth="yes"/>
      <point x="1382" y="-22"/>
      <point x="1499" y="60"/>
      <point x="1566" y="318" type="curve"/>
      <point x="1396" y="318" type="line"/>
      <point x="1351" y="135"/>
      <point x="1283" y="121"/>
      <point x="1117" y="121" type="curve" smooth="yes"/>
      <point x="991" y="121"/>
      <point x="929" y="169"/>
      <point x="929" y="271" type="curve" smooth="yes"/>
      <point x="929" y="288"/>
      <point x="930" y="307"/>
      <point x="934" y="328" type="curve" smooth="yes"/>
      <point x="966" y="511" type="line"/>
      <point x="1606" y="511" type="line"/>
      <point x="1649" y="758" type="line" smooth="yes"/>
      <point x="1653" y="782"/>
      <point x="1655" y="804"/>
      <point x="1655" y="826" type="curve" smooth="yes"/>
      <point x="1655" y="986"/>
      <point x="1537" y="1080"/>
      <point x="1294" y="1080" type="curve" smooth="yes"/>
      <point x="1149" y="1080"/>
      <point x="1039" y="1037"/>
      <point x="959" y="939" type="curve"/>
      <point x="939" y="1035"/>
      <point x="825" y="1080"/>
      <point x="687" y="1080" type="curve" smooth="yes"/>
      <point x="409" y="1080"/>
      <point x="253" y="989"/>
      <point x="213" y="759" type="curve"/>
      <point x="208" y="731" type="line"/>
      <point x="389" y="731" type="line"/>
      <point x="393" y="758" type="line"/>
      <point x="411" y="857"/>
      <point x="438" y="936"/>
      <point x="651" y="936" type="curve" smooth="yes"/>
      <point x="800" y="936"/>
      <point x="831" y="884"/>
      <point x="831" y="825" type="curve" smooth="yes"/>
      <point x="831" y="808"/>
      <point x="828" y="790"/>
      <point x="825" y="773" type="curve" smooth="yes"/>
      <point x="806" y="667"/>
      <point x="771" y="626"/>
      <point x="537" y="575" type="curve" smooth="yes"/>
      <point x="201" y="502"/>
      <point x="112" y="423"/>
      <point x="88" y="283" type="curve" smooth="yes"/>
      <point x="84" y="263"/>
      <point x="83" y="243"/>
      <point x="83" y="224" type="curve" smooth="yes"/>
      <point x="83" y="87"/>
      <point x="175" y="-22"/>
    </contour>
    <contour>
      <point x="430" y="120" type="curve" smooth="yes"/>
      <point x="333" y="120"/>
      <point x="265" y="155"/>
      <point x="265" y="245" type="curve" smooth="yes"/>
      <point x="265" y="380"/>
      <point x="373" y="403"/>
      <point x="548" y="449" type="curve" smooth="yes"/>
      <point x="711" y="492"/>
      <point x="784" y="544"/>
      <point x="787" y="564" type="curve" smooth="yes"/>
      <point x="737" y="279" type="line"/>
      <point x="690" y="181"/>
      <point x="543" y="120"/>
    </contour>
    <contour>
      <point x="987" y="633" type="line"/>
      <point x="1010" y="760" type="line" smooth="yes"/>
      <point x="1033" y="891"/>
      <point x="1118" y="938"/>
      <point x="1268" y="938" type="curve" smooth="yes"/>
      <point x="1398" y="938"/>
      <point x="1484" y="912"/>
      <point x="1484" y="814" type="curve" smooth="yes"/>
      <point x="1484" y="803"/>
      <point x="1483" y="791"/>
      <point x="1481" y="778" type="curve" smooth="yes"/>
      <point x="1455" y="633" type="line"/>
    </contour>
  </outline>
</glyph>
<glyph name="eth" format="1">
  <advance width="1158"/>
  <unicode hex="00F0"/>
  <outline>
    <contour>
      <point x="443" y="-20" type="curve" smooth="yes"/>
      <point x="826" y="-20"/>
      <point x="899" y="170"/>
      <point x="934" y="365" type="curve" smooth="yes"/>
      <point x="999" y="736" type="line" smooth="yes"/>
      <point x="1014" y="821"/>
      <point x="1022" y="902"/>
      <point x="1022" y="976" type="curve" smooth="yes"/>
      <point x="1022" y="1183"/>
      <point x="959" y="1342"/>
      <point x="804" y="1427" type="curve"/>
      <point x="927" y="1565" type="line"/>
      <point x="841" y="1617" type="line"/>
      <point x="714" y="1470" type="line"/>
      <point x="647" y="1487"/>
      <point x="582" y="1492"/>
      <point x="525" y="1492" type="curve" smooth="yes"/>
      <point x="452" y="1492"/>
      <point x="394" y="1483"/>
      <point x="358" y="1477" type="curve"/>
      <point x="307" y="1349" type="line"/>
      <point x="342" y="1352"/>
      <point x="386" y="1356"/>
      <point x="437" y="1356" type="curve" smooth="yes"/>
      <point x="488" y="1356"/>
      <point x="545" y="1352"/>
      <point x="602" y="1341" type="curve"/>
      <point x="438" y="1152" type="line"/>
      <point x="524" y="1100" type="line"/>
      <point x="701" y="1304" type="line"/>
      <point x="791" y="1250"/>
      <point x="851" y="1156"/>
      <point x="851" y="1014" type="curve" smooth="yes"/>
      <point x="851" y="982"/>
      <point x="848" y="948"/>
      <point x="842" y="911" type="curve"/>
      <point x="819" y="934"/>
      <point x="724" y="975"/>
      <point x="608" y="975" type="curve" smooth="yes"/>
      <point x="345" y="975"/>
      <point x="158" y="846"/>
      <point x="123" y="646" type="curve" smooth="yes"/>
      <point x="65" y="314" type="line" smooth="yes"/>
      <point x="61" y="289"/>
      <point x="58" y="265"/>
      <point x="58" y="242" type="curve" smooth="yes"/>
      <point x="58" y="85"/>
      <point x="167" y="-20"/>
    </contour>
    <contour>
      <point x="468" y="121" type="curve" smooth="yes"/>
      <point x="337" y="121"/>
      <point x="247" y="157"/>
      <point x="247" y="265" type="curve" smooth="yes"/>
      <point x="247" y="278"/>
      <point x="248" y="292"/>
      <point x="251" y="308" type="curve" smooth="yes"/>
      <point x="311" y="652" type="line" smooth="yes"/>
      <point x="334" y="783"/>
      <point x="447" y="833"/>
      <point x="593" y="833" type="curve" smooth="yes"/>
      <point x="653" y="833"/>
      <point x="781" y="813"/>
      <point x="822" y="783" type="curve"/>
      <point x="742" y="329" type="line" smooth="yes"/>
      <point x="722" y="213"/>
      <point x="683" y="121"/>
    </contour>
  </outline>
</glyph>
<glyph name="oslash" format="1">
  <advance width="1174"/>
  <unicode hex="00F8"/>
  <outline>
    <component base="o"/>
    <contour>
      <point x="684" y="1060" type="move" name="top"/>
    </contour>
    <contour>
      <point x="233" y="-226" type="line"/>
      <point x="1026" y="1220" type="line"/>
      <point x="941" y="1251" type="line"/>
      <point x="146" y="-195" type="line"/>
    </contour>
  </outline>
</glyph>
<glyph name="thorn" format="1">
  <advance width="1194"/>
  <unicode hex="00FE"/>
  <outline>
    <contour>
      <point x="8" y="-408" type="line"/>
      <point x="196" y="-408" type="line"/>
      <point x="274" y="34" type="line"/>
      <point x="321" y="8"/>
      <point x="395" y="-24"/>
      <point x="514" y="-24" type="curve" smooth="yes"/>
      <point x="790" y="-24"/>
      <point x="970" y="131"/>
      <point x="1008" y="344" type="curve" smooth="yes"/>
      <point x="1076" y="729" type="line" smooth="yes"/>
      <point x="1080" y="754"/>
      <point x="1083" y="778"/>
      <point x="1083" y="801" type="curve" smooth="yes"/>
      <point x="1083" y="966"/>
      <point x="970" y="1076"/>
      <point x="732" y="1076" type="curve" smooth="yes"/>
      <point x="623" y="1076"/>
      <point x="511" y="1039"/>
      <point x="443" y="994" type="curve"/>
      <point x="534" y="1506" type="line"/>
      <point x="348" y="1506" type="line"/>
    </contour>
    <contour>
      <point x="527" y="117" type="curve" smooth="yes"/>
      <point x="418" y="117"/>
      <point x="343" y="152"/>
      <point x="300" y="179" type="curve"/>
      <point x="413" y="824" type="line"/>
      <point x="435" y="850"/>
      <point x="545" y="934"/>
      <point x="678" y="934" type="curve" smooth="yes"/>
      <point x="803" y="934"/>
      <point x="893" y="881"/>
      <point x="893" y="777" type="curve" smooth="yes"/>
      <point x="893" y="766"/>
      <point x="892" y="754"/>
      <point x="890" y="742" type="curve" smooth="yes"/>
      <point x="816" y="324" type="line" smooth="yes"/>
      <point x="793" y="194"/>
      <point x="675" y="117"/>
    </contour>
  </outline>
</glyph>
<glyph name="Hbar" format="1">
  <advance width="1536"/>
  <unicode hex="0126"/>
  <outline>
    <component base="H"/>
    <contour>
      <point x="203" y="1060" type="line"/>
      <point x="1451" y="1060" type="line"/>
      <point x="1473" y="1184" type="line"/>
      <point x="225" y="1184" type="line"/>
    </contour>
  </outline>
</glyph>
<glyph name="hbar" format="1">
  <advance width="1224"/>
  <unicode hex="0127"/>
  <outline>
    <component base="h"/>
    <contour>
      <point x="117" y="1249" type="line"/>
      <point x="932" y="1249" type="line"/>
      <point x="953" y="1373" type="line"/>
      <point x="138" y="1373" type="line"/>
    </contour>
  </outline>
</glyph>
<glyph name="dotlessi" format="1">
  <advance width="556"/>
  <unicode hex="0131"/>
  <outline>
    <contour>
      <point x="211" y="0" type="move" name="ogonek"/>
    </contour>
    <contour>
      <point x="388" y="1060" type="move" name="top"/>
    </contour>
    <contour>
      <point x="99" y="0" type="line"/>
      <point x="287" y="0" type="line"/>
      <point x="473" y="1060" type="line"/>
      <point x="285" y="1060" type="line"/>
    </contour>
  </outline>
</glyph>
<glyph name="kgreenlandic" format="1">
  <advance width="1148"/>
  <unicode hex="0138"/>
  <outline>
    <contour>
      <point x="93" y="0" type="line"/>
      <point x="281" y="0" type="line"/>
      <point x="343" y="354" type="line"/>
      <point x="515" y="498" type="line"/>
      <point x="812" y="0" type="line"/>
      <point x="1029" y="0" type="line"/>
      <point x="674" y="583" type="line"/>
      <point x="1172" y="1060" type="line"/>
      <point x="964" y="1060" type="line"/>
      <point x="763" y="877"/>
      <point x="573" y="692"/>
      <point x="370" y="510" type="curve"/>
      <point x="467" y="1060" type="line"/>
      <point x="279" y="1060" type="line"/>
    </contour>
  </outline>
</glyph>
<glyph name="Lslash" format="1">
  <advance width="1145"/>
  <unicode hex="0141"/>
  <outline>
    <component base="L"/>
    <contour>
      <point x="33" y="616" type="line"/>
      <point x="875" y="1002" type="line"/>
      <point x="897" y="1126" type="line"/>
      <point x="55" y="740" type="line"/>
    </contour>
  </outline>
</glyph>
<glyph name="lslash" format="1">
  <advance width="708"/>
  <unicode hex="0142"/>
  <outline>
    <component base="l"/>
    <contour>
      <point x="29" y="616" type="line"/>
      <point x="628" y="887" type="line"/>
      <point x="650" y="1011" type="line"/>
      <point x="51" y="740" type="line"/>
    </contour>
  </outline>
</glyph>
<glyph name="Eng" format="1">
  <advance width="1582"/>
  <unicode hex="014A"/>
  <outline>
    <contour>
      <point x="661" y="-373" type="line"/>
      <point x="992" y="-373"/>
      <point x="1230" y="-259"/>
      <point x="1297" y="122" type="curve" smooth="yes"/>
      <point x="1530" y="1446" type="line"/>
      <point x="1353" y="1446" type="line"/>
      <point x="1181" y="470" type="line"/>
      <point x="525" y="1446" type="line"/>
      <point x="372" y="1446" type="line"/>
      <point x="117" y="0" type="line"/>
      <point x="294" y="0" type="line"/>
      <point x="489" y="1104" type="line"/>
      <point x="1121" y="190" type="line"/>
      <point x="1108" y="115" type="line" smooth="yes"/>
      <point x="1053" y="-197"/>
      <point x="905" y="-210"/>
      <point x="657" y="-232" type="curve"/>
    </contour>
  </outline>
</glyph>
<glyph name="OE" format="1">
  <advance width="1557"/>
  <unicode hex="0152"/>
  <outline>
    <contour>
      <point x="652" y="0" type="move" name="top"/>
    </contour>
    <contour>
      <point x="648" y="0" type="curve" smooth="yes"/>
      <point x="1272" y="0" type="line"/>
      <point x="1298" y="150" type="line"/>
      <point x="875" y="150" type="line"/>
      <point x="966" y="664" type="line"/>
      <point x="1319" y="664" type="line"/>
      <point x="1345" y="814" type="line"/>
      <point x="992" y="814" type="line"/>
      <point x="1077" y="1296" type="line"/>
      <point x="1491" y="1296" type="line"/>
      <point x="1517" y="1446" type="line"/>
      <point x="902" y="1446" type="line" smooth="yes"/>
      <point x="417" y="1446"/>
      <point x="271" y="1224"/>
      <point x="217" y="918" type="curve" smooth="yes"/>
      <point x="145" y="510" type="line" smooth="yes"/>
      <point x="136" y="457"/>
      <point x="130" y="408"/>
      <point x="130" y="361" type="curve" smooth="yes"/>
      <point x="130" y="142"/>
      <point x="250" y="0"/>
    </contour>
    <contour>
      <point x="664" y="150" type="line" smooth="yes"/>
      <point x="450" y="150"/>
      <point x="333" y="206"/>
      <point x="333" y="383" type="curve" smooth="yes"/>
      <point x="333" y="412"/>
      <point x="336" y="444"/>
      <point x="342" y="479" type="curve" smooth="yes"/>
      <point x="426" y="955" type="line" smooth="yes"/>
      <point x="471" y="1208"/>
      <point x="618" y="1295"/>
      <point x="865" y="1295" type="curve" smooth="yes"/>
      <point x="876" y="1295" type="line"/>
      <point x="674" y="150" type="line"/>
    </contour>
  </outline>
</glyph>
<glyph name="florin" format="1">
  <advance width="890"/>
  <unicode hex="0192"/>
  <outline>
    <contour>
      <point x="105" y="-190" type="curve" smooth="yes"/>
      <point x="306" y="-190"/>
      <point x="391" y="-98"/>
      <point x="425" y="91" type="curve" smooth="yes"/>
      <point x="537" y="727" type="line"/>
      <point x="666" y="727" type="line"/>
      <point x="689" y="858" type="line"/>
      <point x="560" y="858" type="line"/>
      <point x="616" y="1177" type="line" smooth="yes"/>
      <point x="631" y="1263"/>
      <point x="665" y="1335"/>
      <point x="803" y="1335" type="curve" smooth="yes"/>
      <point x="813" y="1335"/>
      <point x="822" y="1335"/>
      <point x="833" y="1334" type="curve"/>
      <point x="855" y="1458" type="line"/>
      <point x="817" y="1462"/>
      <point x="783" y="1464"/>
      <point x="752" y="1464" type="curve" smooth="yes"/>
      <point x="544" y="1464"/>
      <point x="463" y="1372"/>
      <point x="424" y="1155" type="curve" smooth="yes"/>
      <point x="372" y="858" type="line"/>
      <point x="255" y="858" type="line"/>
      <point x="232" y="727" type="line"/>
      <point x="349" y="727" type="line"/>
      <point x="232" y="63" type="line" smooth="yes"/>
      <point x="218" y="-18"/>
      <point x="177" y="-61"/>
      <point x="66" y="-61" type="curve" smooth="yes"/>
      <point x="51" y="-61"/>
      <point x="35" y="-61"/>
      <point x="18" y="-59" type="curve"/>
      <point x="-4" y="-183" type="line"/>
      <point x="36" y="-188"/>
      <point x="72" y="-190"/>
    </contour>
  </outline>
</glyph>
<glyph name="dotlessj" format="1">
  <advance width="595"/>
  <unicode hex="0237"/>
  <outline>
    <contour>
      <point x="456" y="1060" type="move" name="top"/>
    </contour>
    <contour>
      <point x="-98" y="-353" type="line"/>
      <point x="-32" y="-353" type="line" smooth="yes"/>
      <point x="174" y="-353"/>
      <point x="299" y="-305"/>
      <point x="354" y="7" type="curve" smooth="yes"/>
      <point x="540" y="1060" type="line"/>
      <point x="352" y="1060" type="line"/>
      <point x="164" y="-4" type="line" smooth="yes"/>
      <point x="134" y="-174"/>
      <point x="73" y="-197"/>
      <point x="-60" y="-197" type="curve" smooth="yes"/>
      <point x="-89" y="-197" type="line"/>
    </contour>
  </outline>
</glyph>
<glyph name="uni02BC" format="1">
  <advance width="600"/>
  <unicode hex="02BC"/>
  <outline>
    <component base="comma" xOffset="-200" yOffset="1619"/>
    <contour>
      <point x="14" y="1060" type="move" name="_top"/>
    </contour>
  </outline>
</glyph>
<glyph name="caron" format="1">
  <advance width="512"/>
  <unicode hex="02C7"/>
  <outline>
    <contour>
      <point x="313" y="1287" type="line"/>
      <point x="565" y="1553" type="line"/>
      <point x="389" y="1553" type="line"/>
      <point x="260" y="1409" type="line"/>
      <point x="173" y="1553" type="line"/>
      <point x="-7" y="1553" type="line"/>
      <point x="163" y="1287" type="line"/>
    </contour>
    <contour>
      <point x="193" y="1060" type="move" name="_top"/>
    </contour>
  </outline>
</glyph>
<glyph name="dotaccent" format="1">
  <advance width="512"/>
  <unicode hex="02D9"/>
  <outline>
    <contour>
      <point x="191" y="1060" type="move" name="_top"/>
    </contour>
    <contour>
      <point x="131" y="1327" type="line"/>
      <point x="324" y="1327" type="line"/>
      <point x="360" y="1535" type="line"/>
      <point x="167" y="1535" type="line"/>
    </contour>
  </outline>
</glyph>
<glyph name="ring" format="1">
  <advance width="512"/>
  <unicode hex="02DA"/>
  <outline>
    <contour>
      <point x="206" y="1060" type="move" name="_top"/>
    </contour>
    <contour>
      <point x="368" y="1376" type="curve" smooth="yes"/>
      <point x="368" y="1273"/>
      <point x="299" y="1233"/>
      <point x="236" y="1233" type="curve" smooth="yes"/>
      <point x="186" y="1233"/>
      <point x="144" y="1253"/>
      <point x="144" y="1316" type="curve" smooth="yes"/>
      <point x="144" y="1419"/>
      <point x="214" y="1459"/>
      <point x="276" y="1459" type="curve" smooth="yes"/>
      <point x="326" y="1459"/>
      <point x="368" y="1439"/>
    </contour>
    <contour>
      <point x="287" y="1524" type="curve" smooth="yes"/>
      <point x="180" y="1524"/>
      <point x="59" y="1456"/>
      <point x="59" y="1309" type="curve" smooth="yes"/>
      <point x="59" y="1212"/>
      <point x="136" y="1168"/>
      <point x="225" y="1168" type="curve" smooth="yes"/>
      <point x="332" y="1168"/>
      <point x="453" y="1236"/>
      <point x="453" y="1383" type="curve" smooth="yes"/>
      <point x="453" y="1480"/>
      <point x="376" y="1524"/>
    </contour>
  </outline>
</glyph>
<glyph name="ogonek" format="1">
  <advance width="513"/>
  <unicode hex="02DB"/>
  <outline>
    <contour>
      <point x="363" y="0" type="move" name="_ogonek"/>
    </contour>
    <contour>
      <point x="364" y="-476" type="curve"/>
      <point x="381" y="-379" type="line"/>
      <point x="271" y="-379"/>
      <point x="233" y="-335"/>
      <point x="233" y="-275" type="curve" smooth="yes"/>
      <point x="233" y="-265"/>
      <point x="234" y="-255"/>
      <point x="236" y="-245" type="curve" smooth="yes"/>
      <point x="251" y="-160"/>
      <point x="323" y="-54"/>
      <point x="401" y="10" type="curve"/>
      <point x="339" y="10" type="line"/>
      <point x="189" y="-100"/>
      <point x="120" y="-201"/>
      <point x="106" y="-281" type="curve" smooth="yes"/>
      <point x="104" y="-291"/>
      <point x="103" y="-301"/>
      <point x="103" y="-311" type="curve" smooth="yes"/>
      <point x="103" y="-412"/>
      <point x="201" y="-476"/>
    </contour>
  </outline>
</glyph>
<glyph name="uni0307" format="1">
  <advance width="412"/>
  <unicode hex="0307"/>
  <outline>
    <contour>
      <point x="153" y="1060" type="move" name="_top"/>
    </contour>
    <contour>
      <point x="93" y="1327" type="line"/>
      <point x="286" y="1327" type="line"/>
      <point x="322" y="1535" type="line"/>
      <point x="129" y="1535" type="line"/>
    </contour>
  </outline>
</glyph>
<glyph name="uni0312" format="1">
  <advance width="600"/>
  <unicode hex="0312"/>
  <outline>
    <component base="comma" xScale="-1" yScale="-1" xOffset="617" yOffset="1579"/>
    <contour>
      <point x="198" y="1060" type="move" name="_top"/>
    </contour>
  </outline>
</glyph>
<glyph name="uni0326" format="1">
  <advance width="600"/>
  <unicode hex="0326"/>
  <outline>
    <component base="comma" yOffset="-448"/>
    <contour>
      <point x="408" y="0" type="move" name="_bot"/>
    </contour>
  </outline>
</glyph>
<glyph name="uni0358" format="1">
  <advance width="600"/>
  <unicode hex="0358"/>
  <outline>
    <contour>
      <point x="223" y="1060" type="move" name="_top"/>
    </contour>
    <contour>
      <point x="163" y="1327" type="line"/>
      <point x="356" y="1327" type="line"/>
      <point x="392" y="1535" type="line"/>
      <point x="199" y="1535" type="line"/>
    </contour>
  </outline>
</glyph>
<glyph name="Delta" format="1">
  <advance width="1428"/>
  <unicode hex="0394"/>
  <outline>
    <contour>
      <point x="34" y="0" type="line"/>
      <point x="1133" y="0" type="line"/>
      <point x="929" y="1446" type="line"/>
      <point x="752" y="1446" type="line"/>
    </contour>
    <contour>
      <point x="290" y="143" type="line"/>
      <point x="802" y="1196" type="line"/>
      <point x="934" y="143" type="line"/>
    </contour>
  </outline>
</glyph>
<glyph name="Omega" format="1">
  <advance width="1586"/>
  <unicode hex="03A9"/>
  <outline>
    <contour>
      <point x="922" y="1468" type="curve" smooth="yes"/>
      <point x="564" y="1468"/>
      <point x="298" y="1372"/>
      <point x="183" y="716" type="curve" smooth="yes"/>
      <point x="169" y="636"/>
      <point x="162" y="567"/>
      <point x="162" y="507" type="curve" smooth="yes"/>
      <point x="162" y="302"/>
      <point x="238" y="201"/>
      <point x="347" y="141" type="curve"/>
      <point x="102" y="141" type="line"/>
      <point x="78" y="0" type="line"/>
      <point x="568" y="0" type="line"/>
      <point x="592" y="141" type="line"/>
      <point x="433" y="203"/>
      <point x="360" y="294"/>
      <point x="360" y="490" type="curve" smooth="yes"/>
      <point x="360" y="558"/>
      <point x="369" y="639"/>
      <point x="386" y="736" type="curve" smooth="yes"/>
      <point x="477" y="1248"/>
      <point x="634" y="1304"/>
      <point x="894" y="1304" type="curve" smooth="yes"/>
      <point x="1099" y="1304"/>
      <point x="1228" y="1269"/>
      <point x="1228" y="1002" type="curve" smooth="yes"/>
      <point x="1228" y="931"/>
      <point x="1219" y="843"/>
      <point x="1200" y="736" type="curve" smooth="yes"/>
      <point x="1134" y="360"/>
      <point x="1028" y="225"/>
      <point x="784" y="141" type="curve"/>
      <point x="760" y="0" type="line"/>
      <point x="1250" y="0" type="line"/>
      <point x="1274" y="141" type="line"/>
      <point x="1029" y="141" type="line"/>
      <point x="1198" y="219"/>
      <point x="1335" y="365"/>
      <point x="1397" y="716" type="curve" smooth="yes"/>
      <point x="1417" y="831"/>
      <point x="1427" y="929"/>
      <point x="1427" y="1012" type="curve" smooth="yes"/>
      <point x="1427" y="1403"/>
      <point x="1217" y="1468"/>
    </contour>
  </outline>
</glyph>
<glyph name="endash" format="1">
  <advance width="539"/>
  <unicode hex="2013"/>
  <outline>
    <contour>
      <point x="-9" y="606" type="line"/>
      <point x="524" y="606" type="line"/>
      <point x="546" y="732" type="line"/>
      <point x="13" y="732" type="line"/>
    </contour>
  </outline>
</glyph>
<glyph name="emdash" format="1">
  <advance width="1101"/>
  <unicode hex="2014"/>
  <outline>
    <contour>
      <point x="-11" y="402" type="line"/>
      <point x="1085" y="402" type="line"/>
      <point x="1111" y="548" type="line"/>
      <point x="15" y="548" type="line"/>
    </contour>
  </outline>
</glyph>
<glyph name="quotedblleft" format="1">
  <advance width="1181"/>
  <unicode hex="201C"/>
  <outline>
    <contour>
      <point x="542" y="1468" type="line"/>
      <point x="475" y="1414"/>
      <point x="336" y="1271"/>
      <point x="302" y="1080" type="curve" smooth="yes"/>
      <point x="270" y="897" type="line"/>
      <point x="527" y="897" type="line"/>
      <point x="568" y="1130" type="line"/>
      <point x="427" y="1130" type="line"/>
      <point x="450" y="1262"/>
      <point x="559" y="1369"/>
      <point x="616" y="1424" type="curve"/>
    </contour>
    <contour>
      <point x="954" y="1468" type="line"/>
      <point x="887" y="1414"/>
      <point x="748" y="1271"/>
      <point x="714" y="1080" type="curve" smooth="yes"/>
      <point x="682" y="897" type="line"/>
      <point x="939" y="897" type="line"/>
      <point x="980" y="1130" type="line"/>
      <point x="839" y="1130" type="line"/>
      <point x="862" y="1262"/>
      <point x="971" y="1369"/>
      <point x="1028" y="1424" type="curve"/>
    </contour>
  </outline>
</glyph>
<glyph name="quotedblright" format="1">
  <advance width="1181"/>
  <unicode hex="201D"/>
  <outline>
    <contour>
      <point x="227" y="897" type="line"/>
      <point x="294" y="951"/>
      <point x="433" y="1094"/>
      <point x="467" y="1285" type="curve" smooth="yes"/>
      <point x="499" y="1468" type="line"/>
      <point x="242" y="1468" type="line"/>
      <point x="201" y="1235" type="line"/>
      <point x="342" y="1235" type="line"/>
      <point x="319" y="1103"/>
      <point x="210" y="996"/>
      <point x="153" y="941" type="curve"/>
    </contour>
    <contour>
      <point x="639" y="897" type="line"/>
      <point x="706" y="951"/>
      <point x="845" y="1094"/>
      <point x="879" y="1285" type="curve" smooth="yes"/>
      <point x="911" y="1468" type="line"/>
      <point x="654" y="1468" type="line"/>
      <point x="613" y="1235" type="line"/>
      <point x="754" y="1235" type="line"/>
      <point x="731" y="1103"/>
      <point x="622" y="996"/>
      <point x="565" y="941" type="curve"/>
    </contour>
  </outline>
</glyph>
<glyph name="quotedblbase" format="1">
  <advance width="1181"/>
  <unicode hex="201E"/>
  <outline>
    <contour>
      <point x="639" y="-338" type="line"/>
      <point x="706" y="-284"/>
      <point x="845" y="-141"/>
      <point x="879" y="50" type="curve" smooth="yes"/>
      <point x="911" y="233" type="line"/>
      <point x="654" y="233" type="line"/>
      <point x="613" y="0" type="line"/>
      <point x="754" y="0" type="line"/>
      <point x="731" y="-132"/>
      <point x="622" y="-239"/>
      <point x="565" y="-294" type="curve"/>
    </contour>
    <contour>
      <point x="227" y="-338" type="line"/>
      <point x="294" y="-284"/>
      <point x="433" y="-141"/>
      <point x="467" y="50" type="curve" smooth="yes"/>
      <point x="499" y="233" type="line"/>
      <point x="242" y="233" type="line"/>
      <point x="201" y="0" type="line"/>
      <point x="342" y="0" type="line"/>
      <point x="319" y="-132"/>
      <point x="210" y="-239"/>
      <point x="153" y="-294" type="curve"/>
    </contour>
  </outline>
</glyph>
<glyph name="dagger" format="1">
  <advance width="890"/>
  <unicode hex="2020"/>
  <outline>
    <contour>
      <point x="221" y="0" type="line"/>
      <point x="409" y="0" type="line"/>
      <point x="573" y="931" type="line"/>
      <point x="839" y="931" type="line"/>
      <point x="861" y="1060" type="line"/>
      <point x="595" y="1060" type="line"/>
      <point x="663" y="1446" type="line"/>
      <point x="475" y="1446" type="line"/>
      <point x="407" y="1060" type="line"/>
      <point x="147" y="1060" type="line"/>
      <point x="125" y="931" type="line"/>
      <point x="385" y="931" type="line"/>
    </contour>
  </outline>
</glyph>
<glyph name="daggerdbl" format="1">
  <advance width="938"/>
  <unicode hex="2021"/>
  <outline>
    <contour>
      <point x="245" y="0" type="line"/>
      <point x="433" y="0" type="line"/>
      <point x="505" y="409" type="line"/>
      <point x="771" y="409" type="line"/>
      <point x="793" y="538" type="line"/>
      <point x="527" y="538" type="line"/>
      <point x="597" y="931" type="line"/>
      <point x="863" y="931" type="line"/>
      <point x="885" y="1060" type="line"/>
      <point x="619" y="1060" type="line"/>
      <point x="687" y="1446" type="line"/>
      <point x="499" y="1446" type="line"/>
      <point x="431" y="1060" type="line"/>
      <point x="171" y="1060" type="line"/>
      <point x="149" y="931" type="line"/>
      <point x="409" y="931" type="line"/>
      <point x="339" y="538" type="line"/>
      <point x="79" y="538" type="line"/>
      <point x="57" y="409" type="line"/>
      <point x="317" y="409" type="line"/>
    </contour>
  </outline>
</glyph>
<glyph name="bullet" format="1">
  <advance width="975"/>
  <unicode hex="2022"/>
  <outline>
    <contour>
      <point x="433" y="298" type="curve" smooth="yes"/>
      <point x="660" y="298"/>
      <point x="761" y="405"/>
      <point x="795" y="599" type="curve" smooth="yes"/>
      <point x="801" y="632"/>
      <point x="804" y="662"/>
      <point x="804" y="690" type="curve" smooth="yes"/>
      <point x="804" y="828"/>
      <point x="729" y="901"/>
      <point x="540" y="901" type="curve" smooth="yes"/>
      <point x="315" y="901"/>
      <point x="214" y="795"/>
      <point x="180" y="599" type="curve" smooth="yes"/>
      <point x="174" y="566"/>
      <point x="171" y="536"/>
      <point x="171" y="508" type="curve" smooth="yes"/>
      <point x="171" y="371"/>
      <point x="245" y="298"/>
    </contour>
  </outline>
</glyph>
<glyph name="trademark" format="1">
  <advance width="1843"/>
  <unicode hex="2122"/>
  <outline>
    <contour>
      <point x="785" y="766" type="line"/>
      <point x="910" y="766" type="line"/>
      <point x="1009" y="1329" type="line"/>
      <point x="1118" y="931" type="line"/>
      <point x="1279" y="931" type="line"/>
      <point x="1521" y="1329" type="line"/>
      <point x="1422" y="766" type="line"/>
      <point x="1549" y="766" type="line"/>
      <point x="1669" y="1446" type="line"/>
      <point x="1473" y="1446" type="line"/>
      <point x="1214" y="1033" type="line"/>
      <point x="1103" y="1446" type="line"/>
      <point x="905" y="1446" type="line"/>
    </contour>
    <contour>
      <point x="285" y="766" type="line"/>
      <point x="420" y="766" type="line"/>
      <point x="520" y="1332" type="line"/>
      <point x="732" y="1332" type="line"/>
      <point x="752" y="1446" type="line"/>
      <point x="193" y="1446" type="line"/>
      <point x="173" y="1332" type="line"/>
      <point x="385" y="1332" type="line"/>
    </contour>
  </outline>
</glyph>
<glyph name="estimated" format="1">
  <advance width="1199"/>
  <unicode hex="212E"/>
  <outline>
    <contour>
      <point x="723" y="1210" type="curve" smooth="yes"/>
      <point x="842" y="1210"/>
      <point x="949" y="1162"/>
      <point x="998" y="1065" type="curve"/>
      <point x="950" y="790" type="line"/>
      <point x="336" y="790" type="line"/>
      <point x="385" y="1067" type="line"/>
      <point x="473" y="1161"/>
      <point x="604" y="1210"/>
    </contour>
    <contour>
      <point x="95" y="730" type="curve" smooth="yes"/>
      <point x="87" y="687"/>
      <point x="83" y="645"/>
      <point x="83" y="605" type="curve" smooth="yes"/>
      <point x="83" y="353"/>
      <point x="237" y="178"/>
      <point x="565" y="178" type="curve" smooth="yes"/>
      <point x="771" y="178"/>
      <point x="921" y="267"/>
      <point x="1040" y="385" type="curve"/>
      <point x="998" y="436" type="line"/>
      <point x="871" y="321"/>
      <point x="715" y="264"/>
      <point x="575" y="264" type="curve" smooth="yes"/>
      <point x="447" y="264"/>
      <point x="333" y="312"/>
      <point x="268" y="406" type="curve"/>
      <point x="322" y="710" type="line"/>
      <point x="1106" y="710" type="line"/>
      <point x="1116" y="767"/>
      <point x="1121" y="822"/>
      <point x="1121" y="872" type="curve" smooth="yes"/>
      <point x="1121" y="1121"/>
      <point x="998" y="1280"/>
      <point x="734" y="1280" type="curve" smooth="yes"/>
      <point x="414" y="1280"/>
      <point x="150" y="1041"/>
    </contour>
  </outline>
</glyph>
<glyph name="emptyset" format="1">
  <advance width="1552"/>
  <unicode hex="2205"/>
  <outline>
    <contour>
      <point x="690" y="167" type="curve" smooth="yes"/>
      <point x="432" y="167"/>
      <point x="265" y="339"/>
      <point x="265" y="581" type="curve" smooth="yes"/>
      <point x="265" y="613"/>
      <point x="268" y="647"/>
      <point x="274" y="682" type="curve" smooth="yes"/>
      <point x="325" y="974"/>
      <point x="578" y="1196"/>
      <point x="871" y="1196" type="curve" smooth="yes"/>
      <point x="1130" y="1196"/>
      <point x="1295" y="1023"/>
      <point x="1295" y="782" type="curve" smooth="yes"/>
      <point x="1295" y="750"/>
      <point x="1292" y="716"/>
      <point x="1286" y="682" type="curve" smooth="yes"/>
      <point x="1234" y="388"/>
      <point x="984" y="167"/>
    </contour>
    <contour>
      <point x="670" y="66" type="curve" smooth="yes"/>
      <point x="1018" y="66"/>
      <point x="1333" y="331"/>
      <point x="1395" y="682" type="curve" smooth="yes"/>
      <point x="1402" y="721"/>
      <point x="1405" y="758"/>
      <point x="1405" y="795" type="curve" smooth="yes"/>
      <point x="1405" y="1086"/>
      <point x="1196" y="1296"/>
      <point x="887" y="1296" type="curve" smooth="yes"/>
      <point x="541" y="1296"/>
      <point x="224" y="1031"/>
      <point x="163" y="682" type="curve" smooth="yes"/>
      <point x="156" y="643"/>
      <point x="153" y="604"/>
      <point x="153" y="567" type="curve" smooth="yes"/>
      <point x="153" y="275"/>
      <point x="363" y="66"/>
    </contour>
    <contour>
      <point x="99" y="54" type="line"/>
      <point x="156" y="-2" type="line"/>
      <point x="1459" y="1281" type="line"/>
      <point x="1402" y="1337" type="line"/>
    </contour>
  </outline>
</glyph>
<glyph name="summation" format="1">
  <advance width="1123"/>
  <unicode hex="2211"/>
  <outline>
    <contour>
      <point x="949" y="0" type="line"/>
      <point x="977" y="162" type="line"/>
      <point x="222" y="162" type="line"/>
      <point x="780" y="738" type="line"/>
      <point x="792" y="807" type="line"/>
      <point x="416" y="1286" type="line"/>
      <point x="1175" y="1286" type="line"/>
      <point x="1203" y="1446" type="line"/>
      <point x="239" y="1446" type="line"/>
      <point x="213" y="1298" type="line"/>
      <point x="604" y="762" type="line"/>
      <point x="12" y="155" type="line"/>
      <point x="-15" y="0" type="line"/>
    </contour>
  </outline>
</glyph>
<glyph name="minus" format="1">
  <advance width="911"/>
  <unicode hex="2212"/>
  <outline>
    <contour>
      <point x="127" y="439" type="line"/>
      <point x="754" y="439" type="line"/>
      <point x="784" y="609" type="line"/>
      <point x="157" y="609" type="line"/>
    </contour>
  </outline>
</glyph>
<glyph name="bulletoperator" format="1">
  <advance width="792"/>
  <unicode hex="2219"/>
  <outline>
    <contour>
      <point x="628" y="608" type="curve" smooth="yes"/>
      <point x="628" y="449"/>
      <point x="494" y="325"/>
      <point x="354" y="325" type="curve" smooth="yes"/>
      <point x="238" y="325"/>
      <point x="164" y="408"/>
      <point x="164" y="518" type="curve" smooth="yes"/>
      <point x="164" y="677"/>
      <point x="298" y="801"/>
      <point x="438" y="801" type="curve" smooth="yes"/>
      <point x="554" y="801"/>
      <point x="628" y="718"/>
    </contour>
  </outline>
</glyph>
<glyph name="radical" format="1">
  <advance width="1249"/>
  <unicode hex="221A"/>
  <outline>
    <contour>
      <point x="43" y="442" type="line"/>
      <point x="162" y="442" type="line"/>
      <point x="314" y="0" type="line"/>
      <point x="491" y="0" type="line"/>
      <point x="1371" y="1506" type="line"/>
      <point x="1235" y="1506" type="line"/>
      <point x="439" y="159" type="line"/>
      <point x="324" y="553" type="line"/>
      <point x="63" y="553" type="line"/>
    </contour>
  </outline>
</glyph>
<glyph name="integral" format="1">
  <advance width="890"/>
  <unicode hex="222B"/>
  <outline>
    <contour>
      <point x="88" y="-380" type="curve" smooth="yes"/>
      <point x="289" y="-380"/>
      <point x="374" y="-288"/>
      <point x="408" y="-99" type="curve" smooth="yes"/>
      <point x="633" y="1181" type="line" smooth="yes"/>
      <point x="648" y="1267"/>
      <point x="682" y="1339"/>
      <point x="820" y="1339" type="curve" smooth="yes"/>
      <point x="830" y="1339"/>
      <point x="839" y="1339"/>
      <point x="850" y="1338" type="curve"/>
      <point x="872" y="1462" type="line"/>
      <point x="835" y="1466"/>
      <point x="800" y="1468"/>
      <point x="769" y="1468" type="curve" smooth="yes"/>
      <point x="561" y="1468"/>
      <point x="480" y="1376"/>
      <point x="441" y="1159" type="curve" smooth="yes"/>
      <point x="215" y="-127" type="line" smooth="yes"/>
      <point x="200" y="-208"/>
      <point x="160" y="-251"/>
      <point x="49" y="-251" type="curve" smooth="yes"/>
      <point x="34" y="-251"/>
      <point x="18" y="-251"/>
      <point x="1" y="-249" type="curve"/>
      <point x="-21" y="-373" type="line"/>
      <point x="18" y="-378"/>
      <point x="55" y="-380"/>
    </contour>
  </outline>
</glyph>
<glyph name="approxequal" format="1">
  <advance width="881"/>
  <unicode hex="2248"/>
  <outline>
    <contour>
      <point x="551" y="635" type="curve" smooth="yes"/>
      <point x="671" y="635"/>
      <point x="782" y="719"/>
      <point x="811" y="884" type="curve"/>
      <point x="714" y="884" type="line"/>
      <point x="703" y="822"/>
      <point x="667" y="781"/>
      <point x="586" y="781" type="curve" smooth="yes"/>
      <point x="515" y="781"/>
      <point x="413" y="898"/>
      <point x="276" y="898" type="curve" smooth="yes"/>
      <point x="156" y="898"/>
      <point x="45" y="814"/>
      <point x="16" y="649" type="curve"/>
      <point x="113" y="649" type="line"/>
      <point x="124" y="711"/>
      <point x="160" y="752"/>
      <point x="241" y="752" type="curve" smooth="yes"/>
      <point x="312" y="752"/>
      <point x="414" y="635"/>
    </contour>
    <contour>
      <point x="605" y="941" type="curve" smooth="yes"/>
      <point x="725" y="941"/>
      <point x="836" y="1025"/>
      <point x="865" y="1190" type="curve"/>
      <point x="768" y="1190" type="line"/>
      <point x="757" y="1128"/>
      <point x="721" y="1087"/>
      <point x="640" y="1087" type="curve" smooth="yes"/>
      <point x="569" y="1087"/>
      <point x="467" y="1204"/>
      <point x="330" y="1204" type="curve" smooth="yes"/>
      <point x="210" y="1204"/>
      <point x="99" y="1120"/>
      <point x="70" y="955" type="curve"/>
      <point x="167" y="955" type="line"/>
      <point x="178" y="1017"/>
      <point x="214" y="1058"/>
      <point x="295" y="1058" type="curve" smooth="yes"/>
      <point x="366" y="1058"/>
      <point x="468" y="941"/>
    </contour>
  </outline>
</glyph>
<glyph name="notequal" format="1">
  <advance width="768"/>
  <unicode hex="2260"/>
  <outline>
    <component base="equal" xOffset="-241"/>
    <contour>
      <point x="42" y="205" type="line"/>
      <point x="189" y="205" type="line"/>
      <point x="738" y="1186" type="line"/>
      <point x="595" y="1186" type="line"/>
    </contour>
  </outline>
</glyph>
<glyph name="lozenge" format="1">
  <advance width="1104"/>
  <unicode hex="25CA"/>
  <outline>
    <contour>
      <point x="353" y="0" type="line"/>
      <point x="523" y="0" type="line"/>
      <point x="988" y="725" type="line"/>
      <point x="777" y="1446" type="line"/>
      <point x="607" y="1446" type="line"/>
      <point x="116" y="725" type="line"/>
    </contour>
    <contour>
      <point x="468" y="160" type="line"/>
      <point x="295" y="725" type="line"/>
      <point x="665" y="1276" type="line"/>
      <point x="814" y="725" type="line"/>
    </contour>
  </outline>
</glyph>
<glyph name="caron.alt" format="1">
  <advance width="600"/>
  <outline>
    <contour>
      <point x="233" y="1060" type="move" name="_caron.alt"/>
    </contour>
    <contour>
      <point x="653" y="1222" type="line"/>
      <point x="720" y="1276"/>
      <point x="859" y="1419"/>
      <point x="893" y="1610" type="curve" smooth="yes"/>
      <point x="925" y="1793" type="line"/>
      <point x="668" y="1793" type="line"/>
      <point x="627" y="1560" type="line"/>
      <point x="768" y="1560" type="line"/>
      <point x="745" y="1428"/>
      <point x="636" y="1321"/>
      <point x="579" y="1266" type="curve"/>
    </contour>
  </outline>
</glyph>
<glyph name="foundryicon" format="1">
  <advance width="1347"/>
  <outline>
    <contour>
      <point x="449" y="405" type="line"/>
      <point x="496" y="672" type="line"/>
      <point x="602" y="672" type="line"/>
      <point x="746" y="523" type="line"/>
      <point x="772" y="672" type="line"/>
      <point x="878" y="672" type="line"/>
      <point x="831" y="405" type="line"/>
      <point x="725" y="405" type="line"/>
      <point x="581" y="552" type="line"/>
      <point x="555" y="405" type="line"/>
    </contour>
    <contour>
      <point x="173" y="2" type="line"/>
      <point x="611" y="278" type="line"/>
      <point x="959" y="2" type="line"/>
      <point x="896" y="461" type="line"/>
      <point x="1339" y="755" type="line"/>
      <point x="854" y="755" type="line"/>
      <point x="776" y="1215" type="line"/>
      <point x="545" y="755" type="line"/>
      <point x="60" y="755" type="line"/>
      <point x="397" y="461" type="line"/>
    </contour>
  </outline>
</glyph>
